<svg width="90" height="70" viewBox="0 0 90 70" fill="none" xmlns="http://www.w3.org/2000/svg">
<g clip-path="url(#clip0_1_287)">
<path d="M51.2539 11.7915L47.3814 55.1742L29.974 60.0001L12.6145 55.181L8.74605 11.7915H51.2539Z" fill="#264DE4"/>
<path d="M44.066 52.4119L47.3754 15.3394H30V56.3115L44.066 52.4119Z" fill="#2965F1"/>
<path d="M17.6145 31.4316L18.0914 36.7531H30V31.4316H17.6145Z" fill="#EBEBEB"/>
<path d="M30 20.6606H29.9816H16.6561L17.1398 25.9822H30V20.6606Z" fill="#EBEBEB"/>
<path d="M30 50.789V45.2523L29.9767 45.2586L24.05 43.6582L23.6712 39.4141H20.7913H18.3292L19.0747 47.7696L29.9755 50.7958L30 50.789Z" fill="#EBEBEB"/>
<path d="M18.75 0H25.1953V2.69531H21.4453V5.39062H25.1953V8.08594H18.75V0Z" fill="black"/>
<path d="M26.4844 0H32.9297V2.34375H29.1797V2.8125H32.9297V8.20312H26.4844V5.74219H30.2344V5.27344H26.4844V0Z" fill="black"/>
<path d="M34.2188 0H40.6641V2.34375H36.9141V2.8125H40.6641V8.20312H34.2188V5.74219H37.9688V5.27344H34.2188V0Z" fill="black"/>
<path d="M36.5345 36.7531L35.9168 43.6547L29.9816 45.2567V50.7931L40.8911 47.7695L40.9711 46.8705L42.2216 32.8606L42.3514 31.4316L43.3121 20.6606H29.9816V25.9822H37.4802L36.996 31.4316H29.9816V36.7531H36.5345Z" fill="white"/>
</g>
<defs>
<clipPath id="clip0_1_287">
<rect width="42.5079" height="60" fill="white" transform="translate(8.74605)"/>
</clipPath>
</defs>
</svg>
