<svg width="80" height="70" viewBox="0 0 80 70" fill="none" xmlns="http://www.w3.org/2000/svg">
<g clip-path="url(#clip0_1_228)">
<path d="M60 46.4904C57.8175 47.0454 56.4675 46.5148 55.2562 44.6961L46.6425 32.7786L45.3975 31.1286L35.3381 44.7354C34.1888 46.3723 32.9831 47.0848 30.8381 46.5054L43.7194 29.2142L31.7269 13.5954C33.7894 13.1942 35.2144 13.3986 36.48 15.2454L45.4144 27.3111L54.4144 15.3111C55.5675 13.6742 56.8069 13.0517 58.8769 13.6554L54.2269 19.8204L47.9269 28.0236C47.1769 28.9611 47.28 29.6023 47.97 30.5079L60 46.4904ZM0.015 28.9254L1.06875 23.7429C3.9375 13.4867 15.6938 9.22482 23.8013 15.5623C28.5394 19.2898 29.7169 24.5623 29.4825 30.4686H2.775C2.37375 41.0998 10.0256 47.5161 19.7812 44.2423C23.2031 43.0929 25.2188 40.4136 26.2275 37.0611C26.7394 35.3811 27.5869 35.1186 29.1656 35.5986C28.3594 39.7911 26.5406 43.2936 22.6969 45.4854C16.9537 48.7667 8.75625 47.7054 4.44375 43.1454C1.875 40.4998 0.81375 37.1473 0.3375 33.5623C0.2625 32.9698 0.1125 32.4054 0 31.8373C0.01 30.8673 0.015 29.8973 0.015 28.9273V28.9254ZM2.82375 28.2129H26.9587C26.8013 20.5254 22.0144 15.0654 15.4725 15.0186C8.29125 14.9623 3.135 20.2929 2.82375 28.2129Z" fill="black"/>
</g>
<defs>
<clipPath id="clip0_1_228">
<rect width="60" height="60" fill="white"/>
</clipPath>
</defs>
</svg>
