<svg width="80" height="70" viewBox="0 0 80 70" fill="none" xmlns="http://www.w3.org/2000/svg">
<g clip-path="url(#clip0_1_278)">
<path d="M12.7031 0H15.3984V2.67188H17.8828V0H20.5781V8.08594H17.8828V5.39062H15.4219V8.08594H12.7031M24.1406 2.69531H21.7617V0H29.2266V2.69531H26.8359V8.08594H24.1406M30.4102 0H33.2344L34.9688 2.84766L36.7031 0H39.5273V8.08594H36.832V4.07812L34.9453 6.98438L33.0586 4.07812V8.08594H30.4102M40.8633 0H43.5586V5.41406H47.3789V8.08594H40.8633" fill="black"/>
<path d="M12.6094 55.1953L8.74219 11.7891H51.2578L47.3906 55.1719L29.9648 60" fill="#E44D26"/>
<path d="M30 56.3086V15.3516H47.3789L44.0625 52.3828" fill="#F16529"/>
<path d="M16.6406 20.6602H30V25.9805H22.4766L22.9688 31.4297H30V36.7383H18.0937M18.3281 39.4102H23.6719L24.0469 43.6641L30 45.2578V50.8125L19.0781 47.7656" fill="#EBEBEB"/>
<path d="M43.3125 20.6602H29.9766V25.9805H42.8203M42.3398 31.4297H29.9766V36.75H36.5391L35.918 43.6641L29.9766 45.2578V50.7891L40.875 47.7656" fill="white"/>
</g>
<defs>
<clipPath id="clip0_1_278">
<rect width="60" height="60" fill="white"/>
</clipPath>
</defs>
</svg>
