<svg width="80" height="70" viewBox="0 0 80 70" fill="none" xmlns="http://www.w3.org/2000/svg">
<g clip-path="url(#clip0_1_221)">
<path d="M30.0938 59.6251C29.283 59.6251 28.5263 59.4091 27.8228 59.0311L20.6303 54.7666C19.5488 54.1726 20.0895 53.9566 20.4135 53.8486C21.8738 53.3626 22.1445 53.2546 23.6588 52.3906C23.8208 52.2826 24.0368 52.3366 24.1988 52.4446L29.7158 55.7379C29.9318 55.8459 30.2025 55.8459 30.3645 55.7379L51.942 43.2669C52.1588 43.1589 52.2668 42.9436 52.2668 42.6736V17.7856C52.2668 17.5156 52.1588 17.2996 51.9428 17.1916L30.3645 4.7746C30.1485 4.6666 29.877 4.6666 29.7158 4.7746L8.13751 17.1916C7.92001 17.2996 7.81201 17.5696 7.81201 17.7856V42.6736C7.81201 42.8889 7.92076 43.1589 8.13676 43.2669L14.0318 46.6681C17.2223 48.2881 19.2233 46.3981 19.2233 44.5089V19.9449C19.2233 19.6209 19.4933 19.2969 19.872 19.2969H22.6305C22.9545 19.2969 23.2793 19.5669 23.2793 19.9449V44.5089C23.2793 48.7741 20.9543 51.2574 16.8975 51.2574C15.654 51.2574 14.6805 51.2573 11.9228 49.9073L6.24376 46.6681C5.55327 46.2678 4.98009 45.693 4.58165 45.0015C4.18321 44.3099 3.97349 43.5257 3.97351 42.7276V17.8396C3.97344 17.0413 4.18321 16.2569 4.58179 15.5652C4.98037 14.8735 5.55377 14.2986 6.24451 13.8984L27.822 1.42735C29.175 0.671352 31.0133 0.671352 32.3655 1.42735L53.943 13.8984C54.6339 14.2985 55.2074 14.8733 55.6062 15.5651C56.0049 16.2568 56.2148 17.0412 56.2148 17.8396V42.7276C56.2146 43.5259 56.0047 44.3101 55.606 45.0017C55.2073 45.6933 54.6338 46.268 53.943 46.6681L32.3655 59.1391C31.7168 59.4091 30.9053 59.6251 30.0938 59.6251Z" fill="#5FA04E"/>
<path d="M36.8003 42.5115C27.3353 42.5115 25.389 38.1923 25.389 34.521C25.389 34.197 25.659 33.873 26.0378 33.873H28.8503C29.175 33.873 29.445 34.089 29.445 34.413C29.8778 37.2743 31.1213 38.6783 36.8543 38.6783C41.397 38.6783 43.3433 37.6523 43.3433 35.223C43.3433 33.8198 42.8033 32.793 35.718 32.0918C29.823 31.4978 26.1465 30.2018 26.1465 25.5053C26.1465 21.1328 29.8238 18.5415 35.9888 18.5415C42.9113 18.5415 46.3178 20.9168 46.7513 26.0993C46.7513 26.2613 46.6965 26.4233 46.5885 26.5853C46.4805 26.6933 46.3185 26.8013 46.1558 26.8013H43.2893C43.1506 26.7966 43.0172 26.7466 42.9097 26.6588C42.8023 26.571 42.7267 26.4503 42.6945 26.3153C42.0458 23.3453 40.3695 22.374 35.9348 22.374C30.9593 22.374 30.3645 24.102 30.3645 25.3973C30.3645 26.9633 31.0673 27.4493 37.7738 28.3125C44.4255 29.1765 47.5613 30.4185 47.5613 35.061C47.5613 39.8123 43.614 42.5115 36.8003 42.5115Z" fill="#5FA04E"/>
</g>
<defs>
<clipPath id="clip0_1_221">
<rect width="53.25" height="60" fill="white" transform="translate(3.375)"/>
</clipPath>
</defs>
</svg>
