<svg width="86" height="85" viewBox="0 0 86 85" fill="none" xmlns="http://www.w3.org/2000/svg">
<g clip-path="url(#clip0_179_331)">
<path d="M27.1272 33.1201C27.0165 32.8988 26.8643 32.7189 26.6707 32.5806C26.477 32.4422 26.2418 32.373 25.9651 32.373L14.095 31.543C13.7629 31.543 13.4724 31.626 13.2234 31.792C12.9744 31.958 12.7945 32.1794 12.6838 32.4561L4.05103 54.4531C3.94035 54.7298 3.92651 55.0203 4.00952 55.3247C4.09253 55.6291 4.27238 55.8643 4.54907 56.0303C4.65975 56.141 4.78426 56.224 4.92261 56.2793C5.06095 56.3346 5.21313 56.3623 5.37915 56.3623C5.54517 56.3623 5.69735 56.3346 5.83569 56.2793C5.97404 56.224 6.09855 56.1686 6.20923 56.1133L13.3479 50.7178L17.4983 51.5479C17.8303 51.6032 18.1485 51.5479 18.4529 51.3818C18.7572 51.2158 18.9924 50.9668 19.1584 50.6348C20.2652 47.7572 21.4827 44.9626 22.8108 42.251C24.1389 39.5394 25.5777 36.9661 27.1272 34.5312C27.2379 34.3099 27.2932 34.0747 27.2932 33.8257C27.2932 33.5767 27.2379 33.3415 27.1272 33.1201ZM16.9172 48.5596L13.2649 47.8125C13.0989 47.7572 12.919 47.7572 12.7253 47.8125C12.5317 47.8678 12.3518 47.9508 12.1858 48.0615L8.53345 50.8008L14.925 34.4482L23.4749 35.0293C22.2574 37.1322 21.0953 39.3042 19.9885 41.5454C18.8818 43.7866 17.858 46.1247 16.9172 48.5596ZM53.6067 71.0547L52.7766 59.1846C52.7766 58.9079 52.7074 58.6727 52.5691 58.479C52.4307 58.2853 52.2509 58.1331 52.0295 58.0225C51.8082 57.9118 51.573 57.8564 51.324 57.8564C51.075 57.8564 50.8398 57.9118 50.6184 58.0225C48.1835 59.5719 45.6103 61.0107 42.8987 62.3389C40.1871 63.667 37.3925 64.8844 34.5149 65.9912C34.1829 66.1572 33.9338 66.3924 33.7678 66.6968C33.6018 67.0011 33.5465 67.3193 33.6018 67.6514L34.4319 71.8018L29.0364 78.9404C28.8704 79.1618 28.7874 79.4385 28.7874 79.7705C28.7874 80.1025 28.898 80.3792 29.1194 80.6006C29.2301 80.7666 29.3822 80.9049 29.5759 81.0156C29.7696 81.1263 29.9771 81.1816 30.1985 81.1816C30.3092 81.1816 30.406 81.1678 30.489 81.1401C30.572 81.1125 30.6412 81.0986 30.6965 81.0986L52.6936 72.4658C52.9703 72.3551 53.1917 72.1753 53.3577 71.9263C53.5237 71.6772 53.6067 71.3867 53.6067 71.0547ZM34.3489 76.6162L37.0881 72.9639C37.1988 72.7979 37.2818 72.618 37.3372 72.4243C37.3925 72.2306 37.3925 72.0508 37.3372 71.8848L36.5901 68.2324C39.025 67.2917 41.363 66.2679 43.6042 65.1611C45.8455 64.0544 48.0175 62.8923 50.1204 61.6748L50.7014 70.2246L34.3489 76.6162ZM41.2385 42.5H31.6926C31.4159 42.5 31.1669 42.5692 30.9456 42.7075C30.7242 42.8459 30.5582 43.0257 30.4475 43.2471L18.4944 64.7461C18.3284 65.0228 18.273 65.3271 18.3284 65.6592C18.3837 65.9912 18.5221 66.2679 18.7434 66.4893C18.8541 66.5999 18.9924 66.6829 19.1584 66.7383C19.3245 66.7936 19.5181 66.8213 19.7395 66.8213C19.8502 66.8213 19.9609 66.8075 20.0715 66.7798C20.1822 66.7521 20.2929 66.7106 20.4036 66.6553L41.9856 53.623C42.207 53.5124 42.373 53.3464 42.4836 53.125C42.5943 52.9036 42.6497 52.6546 42.6497 52.3779V43.9111C42.6497 43.5238 42.5113 43.1917 42.2346 42.915C41.9579 42.6383 41.6259 42.5 41.2385 42.5ZM39.8274 51.6309L23.5579 61.5088L32.5227 45.3223H39.8274V51.6309ZM85.0667 1.32812C85.0667 0.996094 84.9421 0.705566 84.6931 0.456543C84.4441 0.20752 84.1536 0.0830078 83.8215 0.0830078C83.6555 0.0830078 81.0269 0.166016 75.9358 0.332031C70.7893 0.553383 64.6467 2.1167 57.5081 5.02197C50.3694 7.92725 43.0094 12.7832 35.428 19.5898C27.8466 26.3965 21.538 36.4128 16.5022 49.6387C16.3915 49.9154 16.3639 50.1921 16.4192 50.4688C16.4745 50.7454 16.6129 50.9668 16.8342 51.1328L23.5579 57.9395C23.7239 58.0501 23.9037 58.147 24.0974 58.23C24.2911 58.313 24.4986 58.3268 24.72 58.2715C24.9413 58.2715 25.1488 58.2023 25.3425 58.064C25.5362 57.9256 25.6884 57.7734 25.7991 57.6074L32.5227 45.3223H39.8274V51.6309L27.4592 59.4336C27.2932 59.5443 27.1549 59.6826 27.0442 59.8486C26.9335 60.0146 26.8505 60.2083 26.7952 60.4297C26.7952 60.651 26.8367 60.8724 26.9197 61.0938C27.0027 61.3151 27.0995 61.4811 27.2102 61.5918L34.0168 68.3154C34.1275 68.4814 34.2659 68.5921 34.4319 68.6475C34.5979 68.7028 34.7916 68.7305 35.0129 68.7305C35.0683 68.7305 35.1375 68.7305 35.2205 68.7305C35.3035 68.7305 35.4003 68.7028 35.511 68.6475C48.7369 63.6117 58.7532 57.3031 65.5598 49.7217C72.3665 42.085 77.2224 34.7111 80.1277 27.6001C83.033 20.4891 84.5963 14.3604 84.8176 9.21387C84.9836 4.12272 85.0667 1.49414 85.0667 1.32812ZM77.679 26.4795C76.4062 29.5784 74.7183 32.8711 72.6155 36.3574C70.4573 39.8991 67.7042 43.4131 64.3562 46.8994C61.0082 50.3857 56.9547 53.7614 52.1956 57.0264C47.4364 60.236 41.8196 63.1136 35.345 65.6592L30.5305 60.8447L41.9856 53.623C42.207 53.5124 42.373 53.3464 42.4836 53.125C42.5943 52.9036 42.6497 52.6546 42.6497 52.3779V43.9111C42.6497 43.5238 42.5113 43.1917 42.2346 42.915C41.9579 42.6383 41.6259 42.5 41.2385 42.5H31.6926C31.4159 42.5 31.1669 42.5692 30.9456 42.7075C30.7242 42.8459 30.5582 43.0257 30.4475 43.2471L24.2219 54.5361L19.4075 49.8047C23.8899 38.5156 29.3131 29.7168 35.677 23.4082C42.0963 17.0996 48.4602 12.4097 54.7688 9.33838C61.0774 6.26709 66.7773 4.42709 71.8684 3.81836C77.0149 3.1543 80.5012 2.82227 82.3274 2.82227C82.3274 4.48242 82.0922 7.48454 81.6218 11.8286C81.1515 16.1727 79.8372 21.0563 77.679 26.4795ZM24.3879 62.5879C24.2773 62.3665 24.0974 62.2144 23.8484 62.1313C23.5994 62.0483 23.3642 62.0068 23.1428 62.0068C23.1428 61.7855 23.1013 61.5503 23.0183 61.3013C22.9353 61.0522 22.7831 60.8724 22.5618 60.7617C21.5103 59.9316 20.3206 59.3921 18.9924 59.1431C17.6643 58.894 16.3362 58.9355 15.0081 59.2676C13.5693 59.5996 12.2965 60.236 11.1897 61.1768C10.0829 62.1175 9.22518 63.252 8.61646 64.5801L0.315674 83.0078C0.149658 83.2845 0.0943197 83.5612 0.149658 83.8379C0.204997 84.1146 0.343343 84.3636 0.564697 84.585C0.675374 84.6956 0.827555 84.7925 1.02124 84.8755C1.21493 84.9585 1.39478 85 1.56079 85C1.67147 85 1.76831 84.9862 1.85132 84.9585C1.93433 84.9308 2.03117 84.8893 2.14185 84.834L20.5696 76.5332C21.8977 75.9245 23.0321 75.0667 23.9729 73.96C24.9137 72.8532 25.55 71.5804 25.8821 70.1416C26.2141 68.8135 26.2556 67.4854 26.0066 66.1572C25.7576 64.8291 25.218 63.6393 24.3879 62.5879ZM23.1428 69.3945C22.8661 70.446 22.4096 71.359 21.7732 72.1338C21.1368 72.9085 20.3482 73.4896 19.4075 73.877L4.38306 80.7666L11.2727 65.7422C11.6601 64.8014 12.2411 64.0129 13.0159 63.3765C13.7906 62.7401 14.676 62.2835 15.6721 62.0068C15.9488 61.9515 16.2255 61.91 16.5022 61.8823C16.7789 61.8547 17.0279 61.8408 17.2493 61.8408C17.692 61.8408 18.1347 61.8823 18.5774 61.9653C19.0201 62.0483 19.4351 62.1729 19.8225 62.3389L18.4944 64.7461C18.3284 65.0228 18.2592 65.3133 18.2869 65.6177C18.3145 65.922 18.4667 66.1849 18.7434 66.4062C18.9648 66.6829 19.2276 66.8351 19.532 66.8628C19.8363 66.8905 20.1269 66.8213 20.4036 66.6553L22.8108 65.3271C23.0875 65.9359 23.2535 66.5999 23.3088 67.3193C23.3642 68.0387 23.3088 68.7305 23.1428 69.3945ZM85.0667 1.32812C85.0667 0.996094 84.9421 0.705566 84.6931 0.456543C84.4441 0.20752 84.1536 0.0830078 83.8215 0.0830078C83.6555 0.0830078 82.7701 0.055336 81.1653 0C79.5605 -0.055336 77.4438 0.0830078 74.8152 0.415039C72.1866 0.74707 69.1292 1.32812 65.6428 2.1582C62.1565 3.04362 58.5042 4.37174 54.6858 6.14258C54.4644 6.25326 54.2846 6.3916 54.1462 6.55762C54.0079 6.72363 53.9111 6.94498 53.8557 7.22168C53.8004 7.44303 53.8142 7.66439 53.8972 7.88574C53.9802 8.10709 54.1047 8.30078 54.2708 8.4668L76.6829 30.8789C76.8489 31.0449 77.0149 31.1556 77.1809 31.2109C77.3469 31.2663 77.5129 31.2939 77.679 31.2939C77.7343 31.2939 77.7896 31.2939 77.845 31.2939C77.9003 31.2939 77.928 31.2939 77.928 31.2939C78.2047 31.2386 78.426 31.1418 78.592 31.0034C78.7581 30.8651 78.8964 30.6852 79.0071 30.4639C80.7779 26.6455 82.106 22.9932 82.9915 19.5068C83.8215 16.0205 84.4026 12.9631 84.7346 10.3345C85.0667 7.70589 85.205 5.5892 85.1497 3.98438C85.0943 2.37955 85.0667 1.49414 85.0667 1.32812ZM77.2639 27.4756L57.6741 7.88574C60.5517 6.72363 63.2633 5.78288 65.8088 5.06348C68.4098 4.39941 70.7893 3.90137 72.9475 3.56934C75.1057 3.2373 76.9872 3.01595 78.592 2.90527C80.1969 2.84994 81.442 2.82227 82.3274 2.82227C82.3274 3.70768 82.2997 4.9528 82.2444 6.55762C82.1337 8.16244 81.9124 10.0301 81.5803 12.1606C81.2483 14.2912 80.7502 16.6569 80.0862 19.2578C79.4221 21.8587 78.4814 24.598 77.2639 27.4756ZM62.7375 22.4121C60.358 20.0326 57.4804 18.8428 54.1047 18.8428C50.7291 18.8428 47.8515 20.0326 45.4719 22.4121C43.037 24.7917 41.8196 27.6693 41.8196 31.0449C41.8196 34.4206 43.037 37.2982 45.4719 39.6777C46.634 40.8952 47.9622 41.7944 49.4563 42.3755C50.9504 42.9565 52.4999 43.2471 54.1047 43.2471C55.6542 43.2471 57.176 42.9565 58.6702 42.3755C60.1643 41.7944 61.5201 40.8952 62.7375 39.6777C65.1171 37.2982 66.3069 34.4206 66.3069 31.0449C66.3069 27.6693 65.1171 24.7917 62.7375 22.4121ZM60.7454 37.6855C58.8638 39.5117 56.6365 40.4248 54.0632 40.4248C51.49 40.4248 49.2903 39.5117 47.4641 37.6855C45.6379 35.8594 44.7249 33.6597 44.7249 31.0864C44.7249 28.5132 45.6379 26.2858 47.4641 24.4043C48.3495 23.5189 49.3733 22.841 50.5354 22.3706C51.6975 21.9002 52.8873 21.665 54.1047 21.665C55.2668 21.665 56.429 21.9002 57.5911 22.3706C58.7532 22.841 59.8046 23.5189 60.7454 24.4043C62.5715 26.2858 63.4846 28.5132 63.4846 31.0864C63.4846 33.6597 62.5715 35.8594 60.7454 37.6855ZM56.927 33.8672C56.0969 34.6419 55.1423 35.0293 54.0632 35.0293C52.9841 35.0293 52.0572 34.6419 51.2825 33.8672C50.5077 33.0924 50.1204 32.1517 50.1204 31.0449C50.1204 29.9382 50.5077 28.9974 51.2825 28.2227C52.0572 27.4479 52.9841 27.0605 54.0632 27.0605C55.1423 27.0605 56.0969 27.4479 56.927 28.2227C57.2037 28.4993 57.5357 28.6377 57.9231 28.6377C58.3105 28.6377 58.6425 28.4993 58.9192 28.2227C59.1959 27.946 59.3342 27.6139 59.3342 27.2266C59.3342 26.8392 59.1959 26.5072 58.9192 26.2305C57.5911 24.9023 55.9862 24.2383 54.1047 24.2383C52.2232 24.2383 50.6184 24.9023 49.2903 26.2305C47.9622 27.5586 47.2981 29.1634 47.2981 31.0449C47.2981 32.9264 47.9622 34.5312 49.2903 35.8594C49.9543 36.5234 50.7014 37.0215 51.5315 37.3535C52.3616 37.6855 53.2193 37.8516 54.1047 37.8516C54.9348 37.8516 55.7787 37.6855 56.6365 37.3535C57.4942 37.0215 58.2551 36.5234 58.9192 35.8594C59.1959 35.5827 59.3342 35.2507 59.3342 34.8633C59.3342 34.4759 59.1959 34.1439 58.9192 33.8672C58.6425 33.5905 58.3105 33.4521 57.9231 33.4521C57.5357 33.4521 57.2037 33.5905 56.927 33.8672Z" fill="#9162C0"/>
</g>
<defs>
<clipPath id="clip0_179_331">
<rect width="85" height="85" fill="white" transform="matrix(1 0 0 -1 0.149902 85)"/>
</clipPath>
</defs>
</svg>
