<svg width="86" height="85" viewBox="0 0 86 85" fill="none" xmlns="http://www.w3.org/2000/svg">
<g clip-path="url(#clip0_20_264)">
<path d="M27.1276 33.1201C27.0169 32.8988 26.8647 32.7189 26.671 32.5806C26.4773 32.4422 26.2421 32.373 25.9655 32.373L14.0953 31.543C13.7633 31.543 13.4728 31.626 13.2238 31.792C12.9747 31.958 12.7949 32.1794 12.6842 32.4561L4.05139 54.4531C3.94071 54.7298 3.92688 55.0203 4.00989 55.3247C4.0929 55.6291 4.27275 55.8643 4.54944 56.0303C4.66012 56.141 4.78463 56.224 4.92297 56.2793C5.06132 56.3346 5.2135 56.3623 5.37952 56.3623C5.54553 56.3623 5.69771 56.3346 5.83606 56.2793C5.97441 56.224 6.09892 56.1686 6.20959 56.1133L13.3483 50.7178L17.4987 51.5479C17.8307 51.6032 18.1489 51.5479 18.4532 51.3818C18.7576 51.2158 18.9928 50.9668 19.1588 50.6348C20.2656 47.7572 21.483 44.9626 22.8112 42.251C24.1393 39.5394 25.5781 36.9661 27.1276 34.5312C27.2382 34.3099 27.2936 34.0747 27.2936 33.8257C27.2936 33.5767 27.2382 33.3415 27.1276 33.1201ZM16.9176 48.5596L13.2653 47.8125C13.0992 47.7572 12.9194 47.7572 12.7257 47.8125C12.532 47.8678 12.3522 47.9508 12.1862 48.0615L8.53381 50.8008L14.9254 34.4482L23.4752 35.0293C22.2578 37.1322 21.0957 39.3042 19.9889 41.5454C18.8821 43.7866 17.8584 46.1247 16.9176 48.5596ZM53.6071 71.0547L52.777 59.1846C52.777 58.9079 52.7078 58.6727 52.5695 58.479C52.4311 58.2853 52.2513 58.1331 52.0299 58.0225C51.8086 57.9118 51.5734 57.8564 51.3243 57.8564C51.0753 57.8564 50.8401 57.9118 50.6188 58.0225C48.1839 59.5719 45.6106 61.0107 42.899 62.3389C40.1875 63.667 37.3929 64.8844 34.5153 65.9912C34.1832 66.1572 33.9342 66.3924 33.7682 66.6968C33.6022 67.0011 33.5468 67.3193 33.6022 67.6514L34.4323 71.8018L29.0367 78.9404C28.8707 79.1618 28.7877 79.4385 28.7877 79.7705C28.7877 80.1025 28.8984 80.3792 29.1198 80.6006C29.2304 80.7666 29.3826 80.9049 29.5763 81.0156C29.77 81.1263 29.9775 81.1816 30.1989 81.1816C30.3095 81.1816 30.4064 81.1678 30.4894 81.1401C30.5724 81.1125 30.6416 81.0986 30.6969 81.0986L52.694 72.4658C52.9707 72.3551 53.192 72.1753 53.358 71.9263C53.524 71.6772 53.6071 71.3867 53.6071 71.0547ZM34.3492 76.6162L37.0885 72.9639C37.1992 72.7979 37.2822 72.618 37.3375 72.4243C37.3929 72.2306 37.3929 72.0508 37.3375 71.8848L36.5905 68.2324C39.0253 67.2917 41.3634 66.2679 43.6046 65.1611C45.8458 64.0544 48.0179 62.8923 50.1207 61.6748L50.7018 70.2246L34.3492 76.6162ZM41.2389 42.5H31.693C31.4163 42.5 31.1673 42.5692 30.9459 42.7075C30.7246 42.8459 30.5586 43.0257 30.4479 43.2471L18.4948 64.7461C18.3287 65.0228 18.2734 65.3271 18.3287 65.6592C18.3841 65.9912 18.5224 66.2679 18.7438 66.4893C18.8545 66.5999 18.9928 66.6829 19.1588 66.7383C19.3248 66.7936 19.5185 66.8213 19.7399 66.8213C19.8505 66.8213 19.9612 66.8075 20.0719 66.7798C20.1826 66.7521 20.2933 66.7106 20.4039 66.6553L41.986 53.623C42.2073 53.5124 42.3733 53.3464 42.484 53.125C42.5947 52.9036 42.65 52.6546 42.65 52.3779V43.9111C42.65 43.5238 42.5117 43.1917 42.235 42.915C41.9583 42.6383 41.6263 42.5 41.2389 42.5ZM39.8278 51.6309L23.5582 61.5088L32.5231 45.3223H39.8278V51.6309ZM85.067 1.32812C85.067 0.996094 84.9425 0.705566 84.6935 0.456543C84.4445 0.20752 84.1539 0.0830078 83.8219 0.0830078C83.6559 0.0830078 81.0273 0.166016 75.9362 0.332031C70.7897 0.553383 64.6471 2.1167 57.5084 5.02197C50.3698 7.92725 43.0097 12.7832 35.4283 19.5898C27.847 26.3965 21.5384 36.4128 16.5026 49.6387C16.3919 49.9154 16.3642 50.1921 16.4196 50.4688C16.4749 50.7454 16.6132 50.9668 16.8346 51.1328L23.5582 57.9395C23.7242 58.0501 23.9041 58.147 24.0978 58.23C24.2915 58.313 24.499 58.3268 24.7203 58.2715C24.9417 58.2715 25.1492 58.2023 25.3429 58.064C25.5366 57.9256 25.6888 57.7734 25.7994 57.6074L32.5231 45.3223H39.8278V51.6309L27.4596 59.4336C27.2936 59.5443 27.1552 59.6826 27.0446 59.8486C26.9339 60.0146 26.8509 60.2083 26.7955 60.4297C26.7955 60.651 26.837 60.8724 26.92 61.0938C27.0031 61.3151 27.0999 61.4811 27.2106 61.5918L34.0172 68.3154C34.1279 68.4814 34.2662 68.5921 34.4323 68.6475C34.5983 68.7028 34.792 68.7305 35.0133 68.7305C35.0686 68.7305 35.1378 68.7305 35.2208 68.7305C35.3038 68.7305 35.4007 68.7028 35.5114 68.6475C48.7373 63.6117 58.7535 57.3031 65.5602 49.7217C72.3668 42.085 77.2228 34.7111 80.1281 27.6001C83.0333 20.4891 84.5966 14.3604 84.818 9.21387C84.984 4.12272 85.067 1.49414 85.067 1.32812ZM77.6793 26.4795C76.4065 29.5784 74.7187 32.8711 72.6158 36.3574C70.4576 39.8991 67.7046 43.4131 64.3566 46.8994C61.0086 50.3857 56.955 53.7614 52.1959 57.0264C47.4368 60.236 41.8199 63.1136 35.3453 65.6592L30.5309 60.8447L41.986 53.623C42.2073 53.5124 42.3733 53.3464 42.484 53.125C42.5947 52.9036 42.65 52.6546 42.65 52.3779V43.9111C42.65 43.5238 42.5117 43.1917 42.235 42.915C41.9583 42.6383 41.6263 42.5 41.2389 42.5H31.693C31.4163 42.5 31.1673 42.5692 30.9459 42.7075C30.7246 42.8459 30.5586 43.0257 30.4479 43.2471L24.2223 54.5361L19.4078 49.8047C23.8903 38.5156 29.3134 29.7168 35.6774 23.4082C42.0966 17.0996 48.4606 12.4097 54.7692 9.33838C61.0778 6.26709 66.7776 4.42709 71.8688 3.81836C77.0153 3.1543 80.5016 2.82227 82.3278 2.82227C82.3278 4.48242 82.0926 7.48454 81.6222 11.8286C81.1518 16.1727 79.8375 21.0563 77.6793 26.4795ZM24.3883 62.5879C24.2776 62.3665 24.0978 62.2144 23.8488 62.1313C23.5997 62.0483 23.3645 62.0068 23.1432 62.0068C23.1432 61.7855 23.1017 61.5503 23.0187 61.3013C22.9357 61.0522 22.7835 60.8724 22.5621 60.7617C21.5107 59.9316 20.3209 59.3921 18.9928 59.1431C17.6647 58.894 16.3365 58.9355 15.0084 59.2676C13.5696 59.5996 12.2968 60.236 11.1901 61.1768C10.0833 62.1175 9.22554 63.252 8.61682 64.5801L0.31604 83.0078C0.150024 83.2845 0.0946859 83.5612 0.150024 83.8379C0.205363 84.1146 0.343709 84.3636 0.565063 84.585C0.675741 84.6956 0.827922 84.7925 1.02161 84.8755C1.21529 84.9585 1.39514 85 1.56116 85C1.67183 85 1.76868 84.9862 1.85168 84.9585C1.93469 84.9308 2.03153 84.8893 2.14221 84.834L20.5699 76.5332C21.8981 75.9245 23.0325 75.0667 23.9733 73.96C24.914 72.8532 25.5504 71.5804 25.8824 70.1416C26.2145 68.8135 26.256 67.4854 26.007 66.1572C25.7579 64.8291 25.2184 63.6393 24.3883 62.5879ZM23.1432 69.3945C22.8665 70.446 22.41 71.359 21.7736 72.1338C21.1372 72.9085 20.3486 73.4896 19.4078 73.877L4.38342 80.7666L11.2731 65.7422C11.6604 64.8014 12.2415 64.0129 13.0162 63.3765C13.791 62.7401 14.6764 62.2835 15.6725 62.0068C15.9492 61.9515 16.2259 61.91 16.5026 61.8823C16.7793 61.8547 17.0283 61.8408 17.2496 61.8408C17.6923 61.8408 18.135 61.8823 18.5778 61.9653C19.0205 62.0483 19.4355 62.1729 19.8229 62.3389L18.4948 64.7461C18.3287 65.0228 18.2596 65.3133 18.2872 65.6177C18.3149 65.922 18.4671 66.1849 18.7438 66.4062C18.9651 66.6829 19.228 66.8351 19.5323 66.8628C19.8367 66.8905 20.1272 66.8213 20.4039 66.6553L22.8112 65.3271C23.0879 65.9359 23.2539 66.5999 23.3092 67.3193C23.3645 68.0387 23.3092 68.7305 23.1432 69.3945ZM85.067 1.32812C85.067 0.996094 84.9425 0.705566 84.6935 0.456543C84.4445 0.20752 84.1539 0.0830078 83.8219 0.0830078C83.6559 0.0830078 82.7705 0.055336 81.1656 0C79.5608 -0.055336 77.4441 0.0830078 74.8156 0.415039C72.187 0.74707 69.1295 1.32812 65.6432 2.1582C62.1569 3.04362 58.5045 4.37174 54.6862 6.14258C54.4648 6.25326 54.285 6.3916 54.1466 6.55762C54.0083 6.72363 53.9114 6.94498 53.8561 7.22168C53.8007 7.44303 53.8146 7.66439 53.8976 7.88574C53.9806 8.10709 54.1051 8.30078 54.2711 8.4668L76.6832 30.8789C76.8492 31.0449 77.0153 31.1556 77.1813 31.2109C77.3473 31.2663 77.5133 31.2939 77.6793 31.2939C77.7347 31.2939 77.79 31.2939 77.8453 31.2939C77.9007 31.2939 77.9283 31.2939 77.9283 31.2939C78.205 31.2386 78.4264 31.1418 78.5924 31.0034C78.7584 30.8651 78.8968 30.6852 79.0074 30.4639C80.7783 26.6455 82.1064 22.9932 82.9918 19.5068C83.8219 16.0205 84.403 12.9631 84.735 10.3345C85.067 7.70589 85.2054 5.5892 85.15 3.98438C85.0947 2.37955 85.067 1.49414 85.067 1.32812ZM77.2643 27.4756L57.6744 7.88574C60.552 6.72363 63.2636 5.78288 65.8092 5.06348C68.4101 4.39941 70.7897 3.90137 72.9479 3.56934C75.1061 3.2373 76.9876 3.01595 78.5924 2.90527C80.1972 2.84994 81.4423 2.82227 82.3278 2.82227C82.3278 3.70768 82.3001 4.9528 82.2448 6.55762C82.1341 8.16244 81.9127 10.0301 81.5807 12.1606C81.2487 14.2912 80.7506 16.6569 80.0865 19.2578C79.4225 21.8587 78.4817 24.598 77.2643 27.4756ZM62.7379 22.4121C60.3584 20.0326 57.4808 18.8428 54.1051 18.8428C50.7295 18.8428 47.8518 20.0326 45.4723 22.4121C43.0374 24.7917 41.8199 27.6693 41.8199 31.0449C41.8199 34.4206 43.0374 37.2982 45.4723 39.6777C46.6344 40.8952 47.9625 41.7944 49.4567 42.3755C50.9508 42.9565 52.5003 43.2471 54.1051 43.2471C55.6546 43.2471 57.1764 42.9565 58.6705 42.3755C60.1647 41.7944 61.5205 40.8952 62.7379 39.6777C65.1175 37.2982 66.3073 34.4206 66.3073 31.0449C66.3073 27.6693 65.1175 24.7917 62.7379 22.4121ZM60.7457 37.6855C58.8642 39.5117 56.6368 40.4248 54.0636 40.4248C51.4904 40.4248 49.2906 39.5117 47.4645 37.6855C45.6383 35.8594 44.7252 33.6597 44.7252 31.0864C44.7252 28.5132 45.6383 26.2858 47.4645 24.4043C48.3499 23.5189 49.3737 22.841 50.5358 22.3706C51.6979 21.9002 52.8877 21.665 54.1051 21.665C55.2672 21.665 56.4293 21.9002 57.5914 22.3706C58.7535 22.841 59.805 23.5189 60.7457 24.4043C62.5719 26.2858 63.485 28.5132 63.485 31.0864C63.485 33.6597 62.5719 35.8594 60.7457 37.6855ZM56.9274 33.8672C56.0973 34.6419 55.1427 35.0293 54.0636 35.0293C52.9845 35.0293 52.0576 34.6419 51.2828 33.8672C50.5081 33.0924 50.1207 32.1517 50.1207 31.0449C50.1207 29.9382 50.5081 28.9974 51.2828 28.2227C52.0576 27.4479 52.9845 27.0605 54.0636 27.0605C55.1427 27.0605 56.0973 27.4479 56.9274 28.2227C57.2041 28.4993 57.5361 28.6377 57.9235 28.6377C58.3108 28.6377 58.6429 28.4993 58.9196 28.2227C59.1962 27.946 59.3346 27.6139 59.3346 27.2266C59.3346 26.8392 59.1962 26.5072 58.9196 26.2305C57.5914 24.9023 55.9866 24.2383 54.1051 24.2383C52.2236 24.2383 50.6188 24.9023 49.2906 26.2305C47.9625 27.5586 47.2985 29.1634 47.2985 31.0449C47.2985 32.9264 47.9625 34.5312 49.2906 35.8594C49.9547 36.5234 50.7018 37.0215 51.5319 37.3535C52.3619 37.6855 53.2197 37.8516 54.1051 37.8516C54.9352 37.8516 55.7791 37.6855 56.6368 37.3535C57.4946 37.0215 58.2555 36.5234 58.9196 35.8594C59.1962 35.5827 59.3346 35.2507 59.3346 34.8633C59.3346 34.4759 59.1962 34.1439 58.9196 33.8672C58.6429 33.5905 58.3108 33.4521 57.9235 33.4521C57.5361 33.4521 57.2041 33.5905 56.9274 33.8672Z" fill="#3858E9"/>
</g>
<defs>
<clipPath id="clip0_20_264">
<rect width="85" height="85" fill="white" transform="matrix(1 0 0 -1 0.150024 85)"/>
</clipPath>
</defs>
</svg>
