<svg width="60" height="60" viewBox="0 0 60 60" fill="none" xmlns="http://www.w3.org/2000/svg">
<path d="M54.375 30H45V22.5C45 18.3633 48.3633 15 52.5 15H53.4375C54.9961 15 56.25 13.7461 56.25 12.1875V6.5625C56.25 5.00391 54.9961 3.75 53.4375 3.75H52.5C42.1406 3.75 33.75 12.1406 33.75 22.5V50.625C33.75 53.7305 36.2695 56.25 39.375 56.25H54.375C57.4805 56.25 60 53.7305 60 50.625V35.625C60 32.5195 57.4805 30 54.375 30ZM20.625 30H11.25V22.5C11.25 18.3633 14.6133 15 18.75 15H19.6875C21.2461 15 22.5 13.7461 22.5 12.1875V6.5625C22.5 5.00391 21.2461 3.75 19.6875 3.75H18.75C8.39062 3.75 0 12.1406 0 22.5V50.625C0 53.7305 2.51953 56.25 5.625 56.25H20.625C23.7305 56.25 26.25 53.7305 26.25 50.625V35.625C26.25 32.5195 23.7305 30 20.625 30Z" fill="black"/>
</svg>
