<svg width="80" height="70" viewBox="0 0 80 70" fill="none" xmlns="http://www.w3.org/2000/svg">
<g clip-path="url(#clip0_1_210)">
<path d="M30 35.348C32.9535 35.348 35.3478 32.9537 35.3478 30.0002C35.3478 27.0466 32.9535 24.6523 30 24.6523C27.0465 24.6523 24.6522 27.0466 24.6522 30.0002C24.6522 32.9537 27.0465 35.348 30 35.348Z" fill="#087EA4"/>
<path d="M30 40.957C45.8481 40.957 58.6956 36.0516 58.6956 30.0005C58.6956 23.9493 45.8481 19.0439 30 19.0439C14.1518 19.0439 1.30432 23.9493 1.30432 30.0005C1.30432 36.0516 14.1518 40.957 30 40.957Z" stroke="#087EA4" stroke-width="2.6087"/>
<path d="M20.5113 35.4786C28.4354 49.2035 39.1074 57.877 44.3478 54.8515C49.5882 51.8259 47.4127 38.247 39.4886 24.5221C31.5645 10.7971 20.8925 2.1236 15.6521 5.14916C10.4117 8.17472 12.5872 21.7537 20.5113 35.4786Z" stroke="#087EA4" stroke-width="2.6087"/>
<path d="M20.5113 24.5221C12.5873 38.247 10.4117 51.826 15.6521 54.8515C20.8926 57.8771 31.5645 49.2035 39.4886 35.4786C47.4127 21.7537 49.5882 8.17474 44.3478 5.14918C39.1074 2.12362 28.4354 10.7972 20.5113 24.5221Z" stroke="#087EA4" stroke-width="2.6087"/>
</g>
<defs>
<clipPath id="clip0_1_210">
<rect width="60" height="53.383" fill="white" transform="translate(0 3.30859)"/>
</clipPath>
</defs>
</svg>
