<svg width="86" height="86" viewBox="0 0 86 86" fill="none" xmlns="http://www.w3.org/2000/svg">
<g clip-path="url(#clip0_179_322)">
<path d="M49.0415 60.0166H15.0083C13.2375 60.0166 11.7295 59.394 10.4844 58.1489C9.23926 56.9038 8.6167 55.3958 8.6167 53.625V19.5918C8.6167 17.8763 9.23926 16.396 10.4844 15.1509C11.7295 13.9058 13.2375 13.2832 15.0083 13.2832H70.2915C72.0623 13.2832 73.5703 13.9058 74.8154 15.1509C76.0605 16.396 76.6831 17.8763 76.6831 19.5918V23.9082C76.6831 24.4616 76.4756 24.9458 76.0605 25.3608C75.6455 25.7759 75.1336 25.9834 74.5249 25.9834C73.9162 25.9834 73.4043 25.7759 72.9893 25.3608C72.5742 24.9458 72.3667 24.4616 72.3667 23.9082V19.5918C72.3667 19.0384 72.1592 18.5542 71.7441 18.1392C71.3291 17.7241 70.8449 17.5166 70.2915 17.5166H15.0083C14.4549 17.5166 13.9707 17.7241 13.5557 18.1392C13.1406 18.5542 12.9331 19.0384 12.9331 19.5918V53.625C12.9331 54.2337 13.1406 54.7456 13.5557 55.1606C13.9707 55.5757 14.4549 55.7832 15.0083 55.7832H49.0415C49.5949 55.7832 50.0791 55.9907 50.4941 56.4058C50.9092 56.8208 51.1167 57.305 51.1167 57.8584C51.1167 58.4671 50.9092 58.979 50.4941 59.394C50.0791 59.8091 49.5949 60.0166 49.0415 60.0166ZM49.0415 77.0332H6.5415C4.77067 77.0332 3.2627 76.4106 2.01758 75.1655C0.772461 73.9204 0.149902 72.4124 0.149902 70.6416V66.4082C0.149902 65.7995 0.357422 65.2876 0.772461 64.8726C1.1875 64.4575 1.69938 64.25 2.30811 64.25H49.0415C49.5949 64.25 50.0791 64.4575 50.4941 64.8726C50.9092 65.2876 51.1167 65.7995 51.1167 66.4082C51.1167 66.9616 50.9092 67.4458 50.4941 67.8608C50.0791 68.2759 49.5949 68.4834 49.0415 68.4834H4.3833V70.6416C4.3833 71.195 4.59082 71.6792 5.00586 72.0942C5.4209 72.5093 5.93278 72.7168 6.5415 72.7168H49.0415C49.5949 72.7168 50.0791 72.9243 50.4941 73.3394C50.9092 73.7544 51.1167 74.2663 51.1167 74.875C51.1167 75.4837 50.9092 75.9956 50.4941 76.4106C50.0791 76.8257 49.5949 77.0332 49.0415 77.0332ZM78.7583 77.0332H61.7417C60.0262 77.0332 58.5459 76.4106 57.3008 75.1655C56.0557 73.9204 55.4331 72.4124 55.4331 70.6416V36.6084C55.4331 34.8376 56.0557 33.3296 57.3008 32.0845C58.5459 30.8394 60.0262 30.2168 61.7417 30.2168H78.7583C80.5291 30.2168 82.0371 30.8394 83.2822 32.0845C84.5273 33.3296 85.1499 34.8376 85.1499 36.6084V70.6416C85.1499 72.4124 84.5273 73.9204 83.2822 75.1655C82.0371 76.4106 80.5291 77.0332 78.7583 77.0332ZM61.7417 34.5332C61.1883 34.5332 60.7041 34.7407 60.2891 35.1558C59.874 35.5708 59.6665 36.055 59.6665 36.6084V70.6416C59.6665 71.195 59.874 71.6792 60.2891 72.0942C60.7041 72.5093 61.1883 72.7168 61.7417 72.7168H78.7583C79.367 72.7168 79.8789 72.5093 80.2939 72.0942C80.709 71.6792 80.9165 71.195 80.9165 70.6416V36.6084C80.9165 36.055 80.709 35.5708 80.2939 35.1558C79.8789 34.7407 79.367 34.5332 78.7583 34.5332H61.7417ZM70.2915 68.4834C70.0148 68.4834 69.7381 68.4281 69.4614 68.3174C69.1847 68.2067 68.9634 68.0684 68.7974 67.9023C68.576 67.681 68.41 67.4458 68.2993 67.1968C68.1886 66.9478 68.1333 66.6849 68.1333 66.4082C68.1333 66.1315 68.1886 65.8548 68.2993 65.5781C68.41 65.3014 68.576 65.0801 68.7974 64.9141C68.9634 64.6927 69.1847 64.5267 69.4614 64.416C69.7381 64.3053 70.0148 64.25 70.2915 64.25C70.5682 64.25 70.8311 64.3053 71.0801 64.416C71.3291 64.5267 71.5643 64.6927 71.7856 64.9141C71.9517 65.0801 72.09 65.3014 72.2007 65.5781C72.3114 65.8548 72.3667 66.1315 72.3667 66.4082C72.3667 66.6849 72.3114 66.9478 72.2007 67.1968C72.09 67.4458 71.9517 67.681 71.7856 67.9023C71.5643 68.0684 71.3291 68.2067 71.0801 68.3174C70.8311 68.4281 70.5682 68.4834 70.2915 68.4834Z" fill="#449D5D"/>
</g>
<defs>
<clipPath id="clip0_179_322">
<rect width="85" height="85" fill="white" transform="matrix(1 0 0 -1 0.149902 85.5)"/>
</clipPath>
</defs>
</svg>
