<svg width="86" height="86" viewBox="0 0 86 86" fill="none" xmlns="http://www.w3.org/2000/svg">
<g clip-path="url(#clip0_20_255)">
<path d="M49.0416 60.0166H15.0084C13.2376 60.0166 11.7296 59.394 10.4845 58.1489C9.23938 56.9038 8.61682 55.3958 8.61682 53.625V19.5918C8.61682 17.8763 9.23938 16.396 10.4845 15.1509C11.7296 13.9058 13.2376 13.2832 15.0084 13.2832H70.2916C72.0625 13.2832 73.5704 13.9058 74.8156 15.1509C76.0607 16.396 76.6832 17.8763 76.6832 19.5918V23.9082C76.6832 24.4616 76.4757 24.9458 76.0607 25.3608C75.6456 25.7759 75.1338 25.9834 74.525 25.9834C73.9163 25.9834 73.4044 25.7759 72.9894 25.3608C72.5743 24.9458 72.3668 24.4616 72.3668 23.9082V19.5918C72.3668 19.0384 72.1593 18.5542 71.7443 18.1392C71.3292 17.7241 70.845 17.5166 70.2916 17.5166H15.0084C14.455 17.5166 13.9708 17.7241 13.5558 18.1392C13.1407 18.5542 12.9332 19.0384 12.9332 19.5918V53.625C12.9332 54.2337 13.1407 54.7456 13.5558 55.1606C13.9708 55.5757 14.455 55.7832 15.0084 55.7832H49.0416C49.595 55.7832 50.0792 55.9907 50.4943 56.4058C50.9093 56.8208 51.1168 57.305 51.1168 57.8584C51.1168 58.4671 50.9093 58.979 50.4943 59.394C50.0792 59.8091 49.595 60.0166 49.0416 60.0166ZM49.0416 77.0332H6.54163C4.77079 77.0332 3.26282 76.4106 2.0177 75.1655C0.772583 73.9204 0.150024 72.4124 0.150024 70.6416V66.4082C0.150024 65.7995 0.357544 65.2876 0.772583 64.8726C1.18762 64.4575 1.6995 64.25 2.30823 64.25H49.0416C49.595 64.25 50.0792 64.4575 50.4943 64.8726C50.9093 65.2876 51.1168 65.7995 51.1168 66.4082C51.1168 66.9616 50.9093 67.4458 50.4943 67.8608C50.0792 68.2759 49.595 68.4834 49.0416 68.4834H4.38342V70.6416C4.38342 71.195 4.59094 71.6792 5.00598 72.0942C5.42102 72.5093 5.9329 72.7168 6.54163 72.7168H49.0416C49.595 72.7168 50.0792 72.9243 50.4943 73.3394C50.9093 73.7544 51.1168 74.2663 51.1168 74.875C51.1168 75.4837 50.9093 75.9956 50.4943 76.4106C50.0792 76.8257 49.595 77.0332 49.0416 77.0332ZM78.7584 77.0332H61.7418C60.0263 77.0332 58.546 76.4106 57.3009 75.1655C56.0558 73.9204 55.4332 72.4124 55.4332 70.6416V36.6084C55.4332 34.8376 56.0558 33.3296 57.3009 32.0845C58.546 30.8394 60.0263 30.2168 61.7418 30.2168H78.7584C80.5293 30.2168 82.0372 30.8394 83.2823 32.0845C84.5275 33.3296 85.15 34.8376 85.15 36.6084V70.6416C85.15 72.4124 84.5275 73.9204 83.2823 75.1655C82.0372 76.4106 80.5293 77.0332 78.7584 77.0332ZM61.7418 34.5332C61.1884 34.5332 60.7042 34.7407 60.2892 35.1558C59.8741 35.5708 59.6666 36.055 59.6666 36.6084V70.6416C59.6666 71.195 59.8741 71.6792 60.2892 72.0942C60.7042 72.5093 61.1884 72.7168 61.7418 72.7168H78.7584C79.3671 72.7168 79.879 72.5093 80.2941 72.0942C80.7091 71.6792 80.9166 71.195 80.9166 70.6416V36.6084C80.9166 36.055 80.7091 35.5708 80.2941 35.1558C79.879 34.7407 79.3671 34.5332 78.7584 34.5332H61.7418ZM70.2916 68.4834C70.0149 68.4834 69.7382 68.4281 69.4615 68.3174C69.1849 68.2067 68.9635 68.0684 68.7975 67.9023C68.5761 67.681 68.4101 67.4458 68.2994 67.1968C68.1888 66.9478 68.1334 66.6849 68.1334 66.4082C68.1334 66.1315 68.1888 65.8548 68.2994 65.5781C68.4101 65.3014 68.5761 65.0801 68.7975 64.9141C68.9635 64.6927 69.1849 64.5267 69.4615 64.416C69.7382 64.3053 70.0149 64.25 70.2916 64.25C70.5683 64.25 70.8312 64.3053 71.0802 64.416C71.3292 64.5267 71.5644 64.6927 71.7858 64.9141C71.9518 65.0801 72.0901 65.3014 72.2008 65.5781C72.3115 65.8548 72.3668 66.1315 72.3668 66.4082C72.3668 66.6849 72.3115 66.9478 72.2008 67.1968C72.0901 67.4458 71.9518 67.681 71.7858 67.9023C71.5644 68.0684 71.3292 68.2067 71.0802 68.3174C70.8312 68.4281 70.5683 68.4834 70.2916 68.4834Z" fill="#3858E9"/>
</g>
<defs>
<clipPath id="clip0_20_255">
<rect width="85" height="85" fill="white" transform="matrix(1 0 0 -1 0.150024 85.5)"/>
</clipPath>
</defs>
</svg>
