<svg width="101" height="85" viewBox="0 0 101 85" fill="none" xmlns="http://www.w3.org/2000/svg">
<g clip-path="url(#clip0_179_327)">
<path d="M13.2603 21.8311H35.0913V24.7363H13.2603V21.8311ZM13.2603 27.9736H28.8657V30.7959H13.2603V27.9736ZM13.2603 37.2705H35.0913V40.0928H13.2603V37.2705ZM13.2603 43.4961H28.8657V46.4014H13.2603V43.4961ZM13.2603 52.793H35.0913V55.6982H13.2603V52.793ZM13.2603 59.1016H25.6284V62.0068H13.2603V59.1016ZM98.5923 75.0391L82.1567 58.4375L79.0854 61.4258L72.5278 54.8682C74.022 53.0973 75.2118 51.0913 76.0972 48.8501C76.9826 46.6089 77.4253 44.2155 77.4253 41.6699C77.4253 39.1243 76.9826 36.7171 76.0972 34.4482C75.2118 32.1794 73.9805 30.1595 72.4033 28.3887C70.8262 26.6178 68.9585 25.1237 66.8003 23.9062C64.6421 22.7441 62.3179 21.9971 59.8276 21.665V0H14.0903L0.89209 13.1982V83.8379H59.8276V66.7383H56.9224V80.9326H3.79736V15.4395H16.1655V2.90527H56.7563V21.665C53.9894 21.7204 51.4162 22.2738 49.0366 23.3252C46.6017 24.432 44.4989 25.8846 42.728 27.6831C40.9572 29.4816 39.5461 31.5983 38.4946 34.0332C37.4432 36.4681 36.9175 39.069 36.9175 41.8359C36.9175 44.6029 37.4432 47.2038 38.4946 49.6387C39.5461 52.0736 40.9849 54.2041 42.811 56.0303C44.6372 57.8564 46.7954 59.2952 49.2856 60.3467C51.7205 61.4535 54.3215 62.0068 57.0884 62.0068C59.634 62.0068 62.0273 61.5641 64.2686 60.6787C66.5098 59.7933 68.5158 58.5758 70.2866 57.0264L76.9272 63.667L73.856 66.7383L90.4575 83.3398C91.0662 83.8932 91.7026 84.3083 92.3667 84.585C93.0308 84.8617 93.7502 85 94.5249 85C95.2996 85 96.0467 84.8478 96.7661 84.5435C97.4855 84.2391 98.0942 83.8379 98.5923 83.3398C99.7544 82.1224 100.335 80.7113 100.335 79.1064C100.335 77.5016 99.7544 76.1458 98.5923 75.0391ZM13.2603 12.3682H5.78955L13.2603 4.73145V12.3682ZM57.2544 58.9355C54.8748 58.9355 52.6613 58.4652 50.6138 57.5244C48.5109 56.639 46.6709 55.4077 45.0938 53.8306C43.5166 52.2534 42.2853 50.4411 41.3999 48.3936C40.4591 46.2907 39.9888 44.0495 39.9888 41.6699C39.9888 39.2904 40.4591 37.0492 41.3999 34.9463C42.2853 32.8434 43.5166 31.0173 45.0938 29.4678C46.6709 27.9183 48.5109 26.6732 50.6138 25.7324C52.6613 24.847 54.8748 24.4043 57.2544 24.4043C59.634 24.4043 61.8752 24.847 63.978 25.7324C66.0809 26.6732 67.9071 27.9183 69.4565 29.4678C71.006 31.0173 72.2511 32.8434 73.1919 34.9463C74.0773 37.0492 74.52 39.2904 74.52 41.6699C74.52 44.0495 74.0773 46.2907 73.1919 48.3936C72.2511 50.4411 71.006 52.2534 69.4565 53.8306C67.9071 55.4077 66.0809 56.639 63.978 57.5244C61.8752 58.4652 59.634 58.9355 57.2544 58.9355ZM96.6001 81.0986C96.3234 81.3753 95.9914 81.5828 95.604 81.7212C95.2166 81.8595 94.8569 81.9287 94.5249 81.9287C94.0822 81.9287 93.6948 81.8595 93.3628 81.7212C93.0308 81.5828 92.7541 81.3753 92.5327 81.0986L77.9233 66.5723L82.1567 62.3389L96.7661 76.8652C97.2642 77.5293 97.4994 78.2764 97.4717 79.1064C97.444 79.9365 97.1535 80.6006 96.6001 81.0986ZM57.5864 34.0332C57.5311 34.0332 57.4619 34.0332 57.3789 34.0332C57.2959 34.0332 57.2544 34.0332 57.2544 34.0332C57.1991 34.0332 57.1299 34.0332 57.0469 34.0332C56.9639 34.0332 56.9224 34.0332 56.9224 34.0332C53.27 34.1439 50.2126 35.2645 47.75 37.395C45.2874 39.5256 44.0008 40.6738 43.8901 40.8398L46.1313 42.666C46.1313 42.666 46.5049 42.3201 47.252 41.6284C47.999 40.9367 48.9813 40.1481 50.1987 39.2627C50.0881 39.5947 50.005 39.9683 49.9497 40.3833C49.8944 40.7983 49.8667 41.2272 49.8667 41.6699C49.8667 43.7728 50.5999 45.5713 52.0664 47.0654C53.5329 48.5596 55.3175 49.3066 57.4204 49.3066C59.5786 49.3066 61.3909 48.5596 62.8574 47.0654C64.3239 45.5713 65.0571 43.7728 65.0571 41.6699C65.0571 41.2272 65.0295 40.826 64.9741 40.4663C64.9188 40.1066 64.8358 39.7054 64.7251 39.2627C65.8872 40.0374 66.8556 40.7845 67.6304 41.5039C68.4051 42.2233 68.7925 42.6107 68.7925 42.666L70.9507 40.8398C70.7293 40.6738 69.3597 39.5394 66.8418 37.4365C64.3239 35.3337 61.2388 34.1992 57.5864 34.0332ZM57.2544 46.5674C55.9263 46.5674 54.8057 46.097 53.8926 45.1562C52.9795 44.2155 52.5229 43.1087 52.5229 41.8359C52.5229 40.5632 52.9657 39.4702 53.8511 38.5571C54.7365 37.644 55.8156 37.1598 57.0884 37.1045C57.1991 37.1045 57.2682 37.1045 57.2959 37.1045C57.3236 37.1045 57.3651 37.1045 57.4204 37.1045C57.5311 37.1045 57.6003 37.1045 57.6279 37.1045C57.6556 37.1045 57.6971 37.1045 57.7524 37.1045C59.0252 37.1598 60.1043 37.644 60.9897 38.5571C61.8752 39.4702 62.3179 40.5632 62.3179 41.8359C62.1519 43.1087 61.5846 44.2155 60.6162 45.1562C59.6478 46.097 58.5272 46.5674 57.2544 46.5674Z" fill="#D17724"/>
</g>
<defs>
<clipPath id="clip0_179_327">
<rect width="99.53" height="85" fill="white" transform="matrix(1 0 0 -1 0.890137 85)"/>
</clipPath>
</defs>
</svg>
