<svg width="101" height="85" viewBox="0 0 101 85" fill="none" xmlns="http://www.w3.org/2000/svg">
<g clip-path="url(#clip0_20_260)">
<path d="M13.26 21.8311H35.0911V24.7363H13.26V21.8311ZM13.26 27.9736H28.8655V30.7959H13.26V27.9736ZM13.26 37.2705H35.0911V40.0928H13.26V37.2705ZM13.26 43.4961H28.8655V46.4014H13.26V43.4961ZM13.26 52.793H35.0911V55.6982H13.26V52.793ZM13.26 59.1016H25.6282V62.0068H13.26V59.1016ZM98.592 75.0391L82.1565 58.4375L79.0852 61.4258L72.5276 54.8682C74.0217 53.0973 75.2115 51.0913 76.0969 48.8501C76.9823 46.6089 77.425 44.2155 77.425 41.6699C77.425 39.1243 76.9823 36.7171 76.0969 34.4482C75.2115 32.1794 73.9802 30.1595 72.4031 28.3887C70.8259 26.6178 68.9583 25.1237 66.8 23.9062C64.6418 22.7441 62.3176 21.9971 59.8274 21.665V0H14.0901L0.891846 13.1982V83.8379H59.8274V66.7383H56.9221V80.9326H3.79712V15.4395H16.1653V2.90527H56.7561V21.665C53.9892 21.7204 51.4159 22.2738 49.0364 23.3252C46.6015 24.432 44.4986 25.8846 42.7278 27.6831C40.957 29.4816 39.5458 31.5983 38.4944 34.0332C37.443 36.4681 36.9172 39.069 36.9172 41.8359C36.9172 44.6029 37.443 47.2038 38.4944 49.6387C39.5458 52.0736 40.9846 54.2041 42.8108 56.0303C44.637 57.8564 46.7952 59.2952 49.2854 60.3467C51.7203 61.4535 54.3212 62.0068 57.0881 62.0068C59.6337 62.0068 62.0271 61.5641 64.2683 60.6787C66.5095 59.7933 68.5155 58.5758 70.2864 57.0264L76.927 63.667L73.8557 66.7383L90.4573 83.3398C91.066 83.8932 91.7024 84.3083 92.3665 84.585C93.0305 84.8617 93.7499 85 94.5247 85C95.2994 85 96.0465 84.8478 96.7659 84.5435C97.4853 84.2391 98.094 83.8379 98.592 83.3398C99.7542 82.1224 100.335 80.7113 100.335 79.1064C100.335 77.5016 99.7542 76.1458 98.592 75.0391ZM13.26 12.3682H5.78931L13.26 4.73145V12.3682ZM57.2542 58.9355C54.8746 58.9355 52.6611 58.4652 50.6135 57.5244C48.5107 56.639 46.6707 55.4077 45.0935 53.8306C43.5164 52.2534 42.2851 50.4411 41.3997 48.3936C40.4589 46.2907 39.9885 44.0495 39.9885 41.6699C39.9885 39.2904 40.4589 37.0492 41.3997 34.9463C42.2851 32.8434 43.5164 31.0173 45.0935 29.4678C46.6707 27.9183 48.5107 26.6732 50.6135 25.7324C52.6611 24.847 54.8746 24.4043 57.2542 24.4043C59.6337 24.4043 61.8749 24.847 63.9778 25.7324C66.0807 26.6732 67.9068 27.9183 69.4563 29.4678C71.0058 31.0173 72.2509 32.8434 73.1917 34.9463C74.0771 37.0492 74.5198 39.2904 74.5198 41.6699C74.5198 44.0495 74.0771 46.2907 73.1917 48.3936C72.2509 50.4411 71.0058 52.2534 69.4563 53.8306C67.9068 55.4077 66.0807 56.639 63.9778 57.5244C61.8749 58.4652 59.6337 58.9355 57.2542 58.9355ZM96.5999 81.0986C96.3232 81.3753 95.9911 81.5828 95.6038 81.7212C95.2164 81.8595 94.8567 81.9287 94.5247 81.9287C94.0819 81.9287 93.6946 81.8595 93.3625 81.7212C93.0305 81.5828 92.7538 81.3753 92.5325 81.0986L77.9231 66.5723L82.1565 62.3389L96.7659 76.8652C97.2639 77.5293 97.4991 78.2764 97.4714 79.1064C97.4438 79.9365 97.1532 80.6006 96.5999 81.0986ZM57.5862 34.0332C57.5308 34.0332 57.4617 34.0332 57.3787 34.0332C57.2957 34.0332 57.2542 34.0332 57.2542 34.0332C57.1988 34.0332 57.1296 34.0332 57.0466 34.0332C56.9636 34.0332 56.9221 34.0332 56.9221 34.0332C53.2698 34.1439 50.2123 35.2645 47.7498 37.395C45.2872 39.5256 44.0006 40.6738 43.8899 40.8398L46.1311 42.666C46.1311 42.666 46.5046 42.3201 47.2517 41.6284C47.9988 40.9367 48.981 40.1481 50.1985 39.2627C50.0878 39.5947 50.0048 39.9683 49.9495 40.3833C49.8941 40.7983 49.8665 41.2272 49.8665 41.6699C49.8665 43.7728 50.5997 45.5713 52.0662 47.0654C53.5326 48.5596 55.3173 49.3066 57.4202 49.3066C59.5784 49.3066 61.3907 48.5596 62.8572 47.0654C64.3237 45.5713 65.0569 43.7728 65.0569 41.6699C65.0569 41.2272 65.0292 40.826 64.9739 40.4663C64.9185 40.1066 64.8355 39.7054 64.7249 39.2627C65.887 40.0374 66.8554 40.7845 67.6301 41.5039C68.4049 42.2233 68.7922 42.6107 68.7922 42.666L70.9504 40.8398C70.7291 40.6738 69.3595 39.5394 66.8416 37.4365C64.3237 35.3337 61.2385 34.1992 57.5862 34.0332ZM57.2542 46.5674C55.926 46.5674 54.8054 46.097 53.8923 45.1562C52.9792 44.2155 52.5227 43.1087 52.5227 41.8359C52.5227 40.5632 52.9654 39.4702 53.8508 38.5571C54.7362 37.644 55.8153 37.1598 57.0881 37.1045C57.1988 37.1045 57.268 37.1045 57.2957 37.1045C57.3233 37.1045 57.3648 37.1045 57.4202 37.1045C57.5308 37.1045 57.6 37.1045 57.6277 37.1045C57.6554 37.1045 57.6969 37.1045 57.7522 37.1045C59.025 37.1598 60.1041 37.644 60.9895 38.5571C61.8749 39.4702 62.3176 40.5632 62.3176 41.8359C62.1516 43.1087 61.5844 44.2155 60.616 45.1562C59.6475 46.097 58.5269 46.5674 57.2542 46.5674Z" fill="#3858E9"/>
</g>
<defs>
<clipPath id="clip0_20_260">
<rect width="99.53" height="85" fill="white" transform="matrix(1 0 0 -1 0.890015 85)"/>
</clipPath>
</defs>
</svg>
