<svg width="86" height="86" viewBox="0 0 86 86" fill="none" xmlns="http://www.w3.org/2000/svg">
<path d="M83.3237 51.4668V36.2764H75.77C75.3273 34.3949 74.7463 32.5964 74.0269 30.8809C73.3075 29.1654 72.4497 27.5329 71.4536 25.9834L76.8491 20.5049L66.1411 9.79688L60.5796 15.3584C59.0301 14.4176 57.3838 13.6014 55.6406 12.9097C53.8975 12.2179 52.1128 11.6507 50.2866 11.208V3.40527H35.0132V11.374C33.187 11.8167 31.43 12.4116 29.7422 13.1587C28.0544 13.9058 26.4357 14.7773 24.8862 15.7734L19.1587 10.1289L8.45068 20.8369L14.2612 26.7305C14.0399 27.1178 13.8185 27.5052 13.5972 27.8926C13.3758 28.2799 13.1821 28.6673 13.0161 29.0547C12.4074 30.2168 11.854 31.4481 11.356 32.7485C10.8579 34.049 10.4705 35.3356 10.1938 36.6084H1.97607V51.8818H10.3599C10.4705 52.3799 10.5951 52.8641 10.7334 53.3345C10.8717 53.8048 11.0239 54.2891 11.1899 54.7871C11.1899 54.8424 11.2038 54.884 11.2314 54.9116C11.2591 54.9393 11.2729 54.9808 11.2729 55.0361C11.7157 56.2536 12.1999 57.4157 12.7256 58.5225C13.2513 59.6292 13.8185 60.7083 14.4272 61.7598L8.53369 67.5703L19.3247 78.3613L25.1353 72.5508C26.6847 73.4915 28.2896 74.3216 29.9497 75.041C31.6099 75.7604 33.353 76.3415 35.1792 76.7842V84.7529H50.2866V76.9502C52.1681 76.5075 53.9943 75.9264 55.7651 75.207C57.536 74.4876 59.1961 73.6299 60.7456 72.6338L66.1411 77.9463L76.8491 67.2383L71.5366 61.9258C72.5327 60.3763 73.4043 58.7161 74.1514 56.9453C74.8984 55.1745 75.4657 53.376 75.853 51.5498H83.3237V51.4668ZM67.5522 62.0918L72.5327 67.0723L66.4731 73.1318L61.5757 68.2344C59.5282 69.8392 57.2869 71.1535 54.8521 72.1772C52.4172 73.201 49.8716 73.8789 47.2153 74.2109V81.2666H38.6655V74.2109C36.0646 73.8236 33.5744 73.118 31.1948 72.0942C28.8153 71.0705 26.6294 69.7839 24.6372 68.2344L19.4077 73.4639L13.2651 67.4043L18.6606 62.2578C17.1665 60.2656 15.9352 58.0936 14.9668 55.7417C13.9984 53.3898 13.3205 50.9411 12.9331 48.3955H5.4624V39.9287H12.7671L13.0161 39.2646C13.4035 36.8298 14.0675 34.4917 15.0083 32.2505C15.9491 30.0093 17.1388 27.9202 18.5776 25.9834L13.2651 20.6709L19.3247 14.6113L24.4712 19.9238C26.4634 18.3744 28.6354 17.0877 30.9873 16.064C33.3392 15.0402 35.8156 14.3346 38.4165 13.9473V6.80859H46.9663V13.8643C49.6226 14.1963 52.1543 14.8604 54.5615 15.8564C56.9688 16.8525 59.1961 18.1253 61.2437 19.6748L66.3071 14.6113L72.2007 20.6709L67.3032 25.5684C68.7974 27.5605 70.0425 29.7188 71.0386 32.043C72.0347 34.3672 72.7541 36.8298 73.1968 39.4307H80.6675V47.8975H73.2798C72.9478 50.4984 72.2975 53.0024 71.3291 55.4097C70.3607 57.8169 69.1017 60.0443 67.5522 62.0918ZM42.8159 25.4023C40.2703 25.4023 37.8631 25.8727 35.5942 26.8135C33.27 27.8096 31.264 29.1515 29.5762 30.8394C27.8883 32.5272 26.5464 34.5055 25.5503 36.7744C24.5542 39.0433 24.0562 41.4782 24.0562 44.0791C24.0562 46.68 24.5542 49.1149 25.5503 51.3838C26.5464 53.6527 27.8883 55.631 29.5762 57.3188C31.264 59.0067 33.27 60.321 35.5942 61.2617C37.8631 62.2578 40.2703 62.7559 42.8159 62.7559C45.3615 62.7559 47.7687 62.2578 50.0376 61.2617C52.3618 60.2656 54.3678 58.9237 56.0557 57.2358C57.7435 55.548 59.0854 53.5697 60.0815 51.3008C61.0776 49.0319 61.5757 46.6247 61.5757 44.0791C61.5757 41.5335 61.0776 39.1263 60.0815 36.8574C59.0854 34.5885 57.7435 32.5964 56.0557 30.8809C54.3678 29.1654 52.3618 27.8096 50.0376 26.8135C47.7687 25.8727 45.3615 25.4023 42.8159 25.4023ZM42.8159 59.2695C38.5549 59.2695 34.944 57.7892 31.9834 54.8286C29.0228 51.868 27.5425 48.2848 27.5425 44.0791C27.5425 39.818 29.0505 36.2072 32.0664 33.2466C35.0824 30.286 38.6655 28.8057 42.8159 28.8057C46.9663 28.8057 50.5495 30.286 53.5654 33.2466C56.5814 36.2072 58.0894 39.818 58.0894 44.0791C58.0894 48.2848 56.5814 51.868 53.5654 54.8286C50.5495 57.7892 46.9663 59.2695 42.8159 59.2695Z" fill="#449D5D"/>
</svg>
