<svg width="86" height="86" viewBox="0 0 86 86" fill="none" xmlns="http://www.w3.org/2000/svg">
<path d="M83.3239 51.4668V36.2764H75.7701C75.3274 34.3949 74.7464 32.5964 74.027 30.8809C73.3076 29.1654 72.4498 27.5329 71.4537 25.9834L76.8492 20.5049L66.1412 9.79688L60.5797 15.3584C59.0302 14.4176 57.3839 13.6014 55.6407 12.9097C53.8976 12.2179 52.1129 11.6507 50.2867 11.208V3.40527H35.0133V11.374C33.1871 11.8167 31.4301 12.4116 29.7423 13.1587C28.0545 13.9058 26.4358 14.7773 24.8864 15.7734L19.1588 10.1289L8.45081 20.8369L14.2614 26.7305C14.04 27.1178 13.8186 27.5052 13.5973 27.8926C13.3759 28.2799 13.1823 28.6673 13.0162 29.0547C12.4075 30.2168 11.8541 31.4481 11.3561 32.7485C10.858 34.049 10.4707 35.3356 10.194 36.6084H1.9762V51.8818H10.36C10.4707 52.3799 10.5952 52.8641 10.7335 53.3345C10.8719 53.8048 11.024 54.2891 11.1901 54.7871C11.1901 54.8424 11.2039 54.884 11.2316 54.9116C11.2592 54.9393 11.2731 54.9808 11.2731 55.0361C11.7158 56.2536 12.2 57.4157 12.7257 58.5225C13.2514 59.6292 13.8186 60.7083 14.4274 61.7598L8.53381 67.5703L19.3248 78.3613L25.1354 72.5508C26.6849 73.4915 28.2897 74.3216 29.9498 75.041C31.61 75.7604 33.3531 76.3415 35.1793 76.7842V84.7529H50.2867V76.9502C52.1683 76.5075 53.9944 75.9264 55.7653 75.207C57.5361 74.4876 59.1962 73.6299 60.7457 72.6338L66.1412 77.9463L76.8492 67.2383L71.5367 61.9258C72.5328 60.3763 73.4044 58.7161 74.1515 56.9453C74.8986 55.1745 75.4658 53.376 75.8531 51.5498H83.3239V51.4668ZM67.5524 62.0918L72.5328 67.0723L66.4733 73.1318L61.5758 68.2344C59.5283 69.8392 57.2871 71.1535 54.8522 72.1772C52.4173 73.201 49.8717 73.8789 47.2155 74.2109V81.2666H38.6656V74.2109C36.0647 73.8236 33.5745 73.118 31.1949 72.0942C28.8154 71.0705 26.6295 69.7839 24.6373 68.2344L19.4078 73.4639L13.2653 67.4043L18.6608 62.2578C17.1666 60.2656 15.9353 58.0936 14.9669 55.7417C13.9985 53.3898 13.3206 50.9411 12.9332 48.3955H5.46252V39.9287H12.7672L13.0162 39.2646C13.4036 36.8298 14.0677 34.4917 15.0084 32.2505C15.9492 30.0093 17.139 27.9202 18.5778 25.9834L13.2653 20.6709L19.3248 14.6113L24.4713 19.9238C26.4635 18.3744 28.6355 17.0877 30.9874 16.064C33.3393 15.0402 35.8157 14.3346 38.4166 13.9473V6.80859H46.9664V13.8643C49.6227 14.1963 52.1544 14.8604 54.5616 15.8564C56.9689 16.8525 59.1962 18.1253 61.2438 19.6748L66.3073 14.6113L72.2008 20.6709L67.3033 25.5684C68.7975 27.5605 70.0426 29.7188 71.0387 32.043C72.0348 34.3672 72.7542 36.8298 73.1969 39.4307H80.6676V47.8975H73.2799C72.9479 50.4984 72.2976 53.0024 71.3292 55.4097C70.3608 57.8169 69.1018 60.0443 67.5524 62.0918ZM42.816 25.4023C40.2705 25.4023 37.8632 25.8727 35.5944 26.8135C33.2701 27.8096 31.2641 29.1515 29.5763 30.8394C27.8885 32.5272 26.5465 34.5055 25.5504 36.7744C24.5543 39.0433 24.0563 41.4782 24.0563 44.0791C24.0563 46.68 24.5543 49.1149 25.5504 51.3838C26.5465 53.6527 27.8885 55.631 29.5763 57.3188C31.2641 59.0067 33.2701 60.321 35.5944 61.2617C37.8632 62.2578 40.2705 62.7559 42.816 62.7559C45.3616 62.7559 47.7688 62.2578 50.0377 61.2617C52.3619 60.2656 54.368 58.9237 56.0558 57.2358C57.7436 55.548 59.0856 53.5697 60.0817 51.3008C61.0778 49.0319 61.5758 46.6247 61.5758 44.0791C61.5758 41.5335 61.0778 39.1263 60.0817 36.8574C59.0856 34.5885 57.7436 32.5964 56.0558 30.8809C54.368 29.1654 52.3619 27.8096 50.0377 26.8135C47.7688 25.8727 45.3616 25.4023 42.816 25.4023ZM42.816 59.2695C38.555 59.2695 34.9441 57.7892 31.9835 54.8286C29.0229 51.868 27.5426 48.2848 27.5426 44.0791C27.5426 39.818 29.0506 36.2072 32.0665 33.2466C35.0825 30.286 38.6656 28.8057 42.816 28.8057C46.9664 28.8057 50.5496 30.286 53.5656 33.2466C56.5815 36.2072 58.0895 39.818 58.0895 44.0791C58.0895 48.2848 56.5815 51.868 53.5656 54.8286C50.5496 57.7892 46.9664 59.2695 42.816 59.2695Z" fill="#3858E9"/>
</svg>
