<svg width="85" height="86" viewBox="0 0 85 86" fill="none" xmlns="http://www.w3.org/2000/svg">
<g clip-path="url(#clip0_179_306)">
<path d="M56.7761 7.30742H35.0285C34.6965 7.30742 34.3922 7.43193 34.1155 7.68095C33.8388 7.92997 33.7004 8.27583 33.7004 8.71852C33.7004 9.10589 33.8249 9.42407 34.074 9.6731C34.323 9.92211 34.6412 10.0466 35.0285 10.0466H56.7761C57.1081 10.0466 57.4125 9.92211 57.6892 9.6731C57.9658 9.42407 58.1042 9.10589 58.1042 8.71852C58.0488 8.27583 57.8967 7.92997 57.6477 7.68095C57.3986 7.43193 57.1081 7.30742 56.7761 7.30742ZM44.7402 12.7028H35.0285C34.6965 12.7028 34.3922 12.8135 34.1155 13.0348C33.8388 13.2562 33.7004 13.5882 33.7004 14.0309C33.7004 14.3629 33.8249 14.6673 34.074 14.944C34.323 15.2207 34.6412 15.359 35.0285 15.359H44.7402C45.0723 15.3037 45.3489 15.1376 45.5703 14.861C45.7916 14.5843 45.9023 14.2523 45.9023 13.8649C45.9023 13.5329 45.7916 13.2562 45.5703 13.0348C45.3489 12.8135 45.0723 12.7028 44.7402 12.7028ZM79.6857 12.8688C79.3537 12.8688 79.0355 12.9795 78.7312 13.2008C78.4268 13.4222 78.2746 13.7542 78.2746 14.1969C78.2746 14.5289 78.3991 14.8333 78.6482 15.11C78.8972 15.3867 79.243 15.525 79.6857 15.525C80.2391 15.525 80.7648 15.7464 81.2628 16.1891C81.7609 16.6318 82.0099 17.1851 82.0099 17.8492V53.7908H72.7962V15.359H74.9544C75.2864 15.359 75.5908 15.2345 75.8675 14.9855C76.1441 14.7365 76.2825 14.4183 76.2825 14.0309C76.2825 13.6989 76.1718 13.3945 75.9505 13.1178C75.7291 12.8412 75.3971 12.7028 74.9544 12.7028H72.7962V4.31921C72.7962 3.2678 72.4089 2.36857 71.6342 1.62151C70.8594 0.874458 69.974 0.500931 68.978 0.500931H16.0202C15.0241 0.500931 14.1387 0.874458 13.364 1.62151C12.5893 2.36857 12.2019 3.2678 12.2019 4.31921V13.0348H5.47841C4.26099 12.9242 3.18191 13.3392 2.24118 14.2799C1.30045 15.2207 0.830078 16.3551 0.830078 17.6832V66.6567C0.830078 67.9848 1.30045 69.1192 2.24118 70.0599C3.18191 71.0007 4.31633 71.471 5.64442 71.471H13.53C13.862 71.471 14.1664 71.3465 14.4431 71.0975C14.7197 70.8485 14.8581 70.5303 14.8581 70.1429C14.8581 69.7002 14.7336 69.3682 14.4846 69.1469C14.2355 68.9255 13.9173 68.8148 13.53 68.8148H5.64442C5.09105 68.8148 4.56535 68.5935 4.06731 68.1508C3.56927 67.7081 3.32026 67.1547 3.32026 66.4907V56.1149H82.0099V66.4907C82.0099 67.044 81.7886 67.5697 81.3458 68.0678C80.9032 68.5658 80.3498 68.8148 79.6857 68.8148H19.3404C19.0084 68.8148 18.704 68.9255 18.4273 69.1469C18.1507 69.3682 18.0123 69.7002 18.0123 70.1429C18.0123 70.4749 18.1368 70.7793 18.3858 71.056C18.6349 71.3327 18.953 71.471 19.3404 71.471H32.3723V78.1115C30.7122 78.1115 29.2735 78.734 28.056 79.9791C26.8386 81.2242 26.2299 82.6768 26.2299 84.3369C26.2299 84.669 26.3406 84.9733 26.5619 85.25C26.7833 85.5267 27.1153 85.665 27.558 85.665H58.1042C58.4362 85.665 58.7406 85.5405 59.0173 85.2915C59.2939 85.0425 59.4323 84.7243 59.4323 84.3369C59.4323 82.6768 58.8236 81.2242 57.6061 79.9791C56.3887 78.734 54.95 78.1115 53.2898 78.1115V71.471H80.0178C81.3458 71.471 82.4803 71.0007 83.421 70.0599C84.3617 69.1192 84.8321 67.9848 84.8321 66.6567V17.6832C84.6661 16.3551 84.0989 15.2207 83.1305 14.2799C82.1621 13.3392 81.0138 12.8688 79.6857 12.8688ZM12.2019 53.6247H3.32026V17.6832C3.32026 17.1298 3.54161 16.6041 3.9843 16.1061C4.427 15.608 4.98038 15.359 5.64442 15.359H12.3679V53.6247H12.2019ZM70.3061 19.0113H27.226C26.8939 19.0113 26.5896 19.1358 26.3129 19.3848C26.0362 19.6338 25.8979 19.952 25.8979 20.3394C25.8979 20.7821 26.0085 21.1141 26.2299 21.3354C26.4512 21.5568 26.7833 21.6674 27.226 21.6674H70.3061V53.7908H14.8581V21.5014H20.6685C21.0005 21.5014 21.3049 21.3908 21.5816 21.1694C21.8583 20.9481 21.9966 20.616 21.9966 20.1733C21.9966 19.786 21.8859 19.4678 21.6646 19.2188C21.4432 18.9698 21.1112 18.8453 20.6685 18.8453H14.8581V4.31921C14.8581 3.98718 14.9826 3.68283 15.2316 3.40614C15.4806 3.12946 15.7988 2.99111 16.1862 2.99111H69.144C69.476 2.99111 69.7804 3.11562 70.057 3.36464C70.3337 3.61366 70.4721 3.93185 70.4721 4.31921L70.3061 19.0113ZM34.8625 71.305H50.6336V77.9455H34.8625V71.305ZM56.4441 83.0088H28.8861C29.1628 82.2341 29.6055 81.6254 30.2142 81.1827C30.8229 80.74 31.5423 80.5187 32.3723 80.5187H52.9578C53.7879 80.5187 54.5073 80.74 55.116 81.1827C55.7247 81.6254 56.1674 82.2341 56.4441 83.0088ZM43.4121 58.6051C42.3054 58.6051 41.3923 58.9786 40.6729 59.7257C39.9535 60.4727 39.5939 61.372 39.5939 62.4234C39.5939 63.5301 39.9535 64.457 40.6729 65.2041C41.3923 65.9511 42.3054 66.3247 43.4121 66.3247C44.5189 66.3247 45.4319 65.9511 46.1513 65.2041C46.8707 64.457 47.2304 63.5301 47.2304 62.4234C47.1751 61.372 46.7739 60.4727 46.0268 59.7257C45.2798 58.9786 44.4082 58.6051 43.4121 58.6051ZM43.4121 63.7515C43.0801 63.7515 42.7758 63.6408 42.4991 63.4194C42.2224 63.1981 42.084 62.8661 42.084 62.4234C42.084 62.0913 42.1947 61.787 42.4161 61.5103C42.6374 61.2336 42.9694 61.0953 43.4121 61.0953C43.7442 61.0953 44.0485 61.2198 44.3252 61.4688C44.6019 61.7178 44.7402 62.036 44.7402 62.4234C44.6849 62.7554 44.5327 63.0598 44.2837 63.3364C44.0347 63.6131 43.7442 63.7515 43.4121 63.7515ZM28.5541 13.5329L24.4038 6.31135C24.2931 6.14534 24.1271 5.99316 23.9057 5.85482C23.6844 5.71648 23.463 5.6473 23.2417 5.6473C22.965 5.6473 22.7713 5.71648 22.6606 5.85482C22.55 5.99316 22.4116 6.14534 22.2456 6.31135L18.0123 13.5329C17.957 13.6989 17.9293 13.8926 17.9293 14.1139C17.9293 14.3353 17.957 14.5843 18.0123 14.861C18.1783 15.027 18.3582 15.1792 18.5518 15.3175C18.7455 15.4558 18.953 15.525 19.1744 15.525H27.558C27.7793 15.525 27.9869 15.4835 28.1805 15.4005C28.3742 15.3175 28.5541 15.1376 28.7201 14.861C28.7754 14.695 28.8031 14.4874 28.8031 14.2384C28.8031 13.9894 28.7201 13.7542 28.5541 13.5329ZM21.3325 12.8688L23.4077 9.54858L25.3998 12.8688H21.3325ZM66.4878 26.2328H48.0605C47.7284 26.2328 47.4241 26.3435 47.1474 26.5648C46.8707 26.7862 46.7324 27.1182 46.7324 27.5609C46.7324 27.8929 46.8569 28.1973 47.1059 28.4739C47.3549 28.7506 47.6731 28.889 48.0605 28.889H66.4878C66.8198 28.889 67.1242 28.7645 67.4008 28.5154C67.6775 28.2664 67.8159 27.9482 67.8159 27.5609C67.8159 27.1182 67.6775 26.7862 67.4008 26.5648C67.1242 26.3435 66.8198 26.2328 66.4878 26.2328ZM66.4878 31.7112H48.0605C47.7284 31.7112 47.4241 31.8357 47.1474 32.0847C46.8707 32.3337 46.7324 32.6519 46.7324 33.0393C46.7324 33.482 46.8569 33.814 47.1059 34.0353C47.3549 34.2567 47.6731 34.3674 48.0605 34.3674H66.4878C66.8198 34.3674 67.1242 34.2567 67.4008 34.0353C67.6775 33.814 67.8159 33.482 67.8159 33.0393C67.8159 32.6519 67.6775 32.3337 67.4008 32.0847C67.1242 31.8357 66.8198 31.7112 66.4878 31.7112ZM66.4878 37.2726H48.0605C47.7284 37.2726 47.4241 37.3832 47.1474 37.6046C46.8707 37.8259 46.7324 38.158 46.7324 38.6007C46.7324 38.9327 46.8569 39.237 47.1059 39.5137C47.3549 39.7904 47.6731 39.9288 48.0605 39.9288H66.4878C66.8198 39.9288 67.1242 39.8043 67.4008 39.5552C67.6775 39.3062 67.8159 38.988 67.8159 38.6007C67.8159 38.2686 67.6775 37.9643 67.4008 37.6876C67.1242 37.4109 66.8198 37.2726 66.4878 37.2726ZM66.4878 42.751H48.0605C47.7284 42.751 47.4241 42.8755 47.1474 43.1245C46.8707 43.3735 46.7324 43.6917 46.7324 44.0791C46.7324 44.4111 46.8569 44.7154 47.1059 44.9921C47.3549 45.2688 47.6731 45.4072 48.0605 45.4072H66.4878C66.8198 45.4072 67.1242 45.2965 67.4008 45.0751C67.6775 44.8538 67.8159 44.5218 67.8159 44.0791C67.8159 43.747 67.6775 43.4427 67.4008 43.166C67.1242 42.8893 66.8198 42.751 66.4878 42.751ZM56.7761 48.3954H48.2265C47.8945 48.3954 47.5901 48.5199 47.3134 48.7689C47.0367 49.0179 46.8984 49.3361 46.8984 49.7235C46.8984 50.1662 47.0229 50.512 47.2719 50.761C47.5209 51.0101 47.8391 51.1346 48.2265 51.1346H56.7761C57.1081 51.1346 57.4125 51.0101 57.6892 50.761C57.9658 50.512 58.1042 50.1662 58.1042 49.7235C58.0488 49.3361 57.8967 49.0179 57.6477 48.7689C57.3986 48.5199 57.1081 48.3954 56.7761 48.3954ZM42.4161 25.0707H19.1744C18.8424 25.0707 18.538 25.1814 18.2613 25.4027C17.9846 25.6241 17.8463 25.9561 17.8463 26.3988V49.5574C17.8463 49.9448 17.9708 50.2768 18.2198 50.5535C18.4688 50.8302 18.787 50.9686 19.1744 50.9686H42.5821C42.9141 50.9686 43.2184 50.844 43.4951 50.595C43.7718 50.346 43.9102 50.0001 43.9102 49.5574V26.2328C43.8548 25.9561 43.6888 25.6932 43.4121 25.4442C43.1354 25.1952 42.8034 25.0707 42.4161 25.0707ZM20.5025 27.5609H41.254V40.7588C41.1433 40.7588 41.0465 40.7588 40.9635 40.7588C40.8804 40.7588 40.8113 40.7588 40.7559 40.7588C39.6492 40.6481 38.75 40.7588 38.0582 41.0908C37.3665 41.4229 36.744 41.7549 36.1906 42.0869C35.8033 42.3083 35.4159 42.5296 35.0285 42.751C34.6412 42.9723 34.1985 43.083 33.7004 43.083C32.815 43.1937 32.0403 43.0276 31.3763 42.5849C30.7122 42.1423 30.0482 41.6442 29.3841 41.0908C28.5541 40.4268 27.641 39.7904 26.6449 39.1817C25.6489 38.573 24.4591 38.324 23.0757 38.4347C22.633 38.4347 22.2041 38.4762 21.7891 38.5592C21.3741 38.6422 20.9452 38.822 20.5025 39.0987V27.5609ZM41.254 48.3954H20.5025V41.9209C20.9452 41.6442 21.4017 41.4367 21.8721 41.2984C22.3425 41.16 22.799 41.0908 23.2417 41.0908C24.2378 40.9802 25.0678 41.1462 25.7319 41.5889C26.3959 42.0316 27.1153 42.5849 27.89 43.249C28.7201 43.913 29.6055 44.5356 30.5462 45.1166C31.4869 45.6977 32.649 45.9052 34.0325 45.7392C34.9732 45.6838 35.7341 45.504 36.3151 45.1996C36.8962 44.8953 37.4357 44.5771 37.9337 44.2451C38.3211 43.913 38.7223 43.6779 39.1373 43.5395C39.5524 43.4012 40.0919 43.3597 40.7559 43.415C40.8113 43.415 40.9081 43.4288 41.0465 43.4565C41.1848 43.4842 41.3093 43.5257 41.42 43.581L41.254 48.3954ZM34.1985 30.3831C33.1471 30.3831 32.2478 30.7566 31.5008 31.5037C30.7537 32.2507 30.3802 33.1499 30.3802 34.2014C30.3802 35.3081 30.7537 36.235 31.5008 36.982C32.2478 37.7291 33.1471 38.1026 34.1985 38.1026C35.3052 38.1026 36.2321 37.7291 36.9792 36.982C37.7262 36.235 38.0998 35.3081 38.0998 34.2014C38.0998 33.2053 37.6986 32.3199 36.8962 31.5452C36.0938 30.7704 35.1945 30.3831 34.1985 30.3831ZM34.1985 35.6955C33.8664 35.6955 33.5621 35.5571 33.2854 35.2804C33.0087 35.0037 32.8704 34.6994 32.8704 34.3674C32.8704 34.0353 33.0087 33.731 33.2854 33.4543C33.5621 33.1776 33.8664 33.0393 34.1985 33.0393C34.5305 33.0393 34.8349 33.1776 35.1115 33.4543C35.3882 33.731 35.5266 34.0353 35.5266 34.3674C35.5266 34.6994 35.3882 35.0037 35.1115 35.2804C34.8349 35.5571 34.5305 35.6955 34.1985 35.6955Z" fill="#9162C0"/>
</g>
<defs>
<clipPath id="clip0_179_306">
<rect width="83.67" height="85" fill="white" transform="matrix(1 0 0 -1 0.830078 85.5)"/>
</clipPath>
</defs>
</svg>
