<svg width="85" height="86" viewBox="0 0 85 86" fill="none" xmlns="http://www.w3.org/2000/svg">
<g clip-path="url(#clip0_20_239)">
<path d="M56.776 7.30742H35.0284C34.6964 7.30742 34.392 7.43193 34.1153 7.68095C33.8387 7.92997 33.7003 8.27583 33.7003 8.71852C33.7003 9.10589 33.8248 9.42407 34.0738 9.6731C34.3229 9.92211 34.641 10.0466 35.0284 10.0466H56.776C57.108 10.0466 57.4123 9.92211 57.689 9.6731C57.9657 9.42407 58.1041 9.10589 58.1041 8.71852C58.0487 8.27583 57.8965 7.92997 57.6475 7.68095C57.3985 7.43193 57.108 7.30742 56.776 7.30742ZM44.7401 12.7028H35.0284C34.6964 12.7028 34.392 12.8135 34.1153 13.0348C33.8387 13.2562 33.7003 13.5882 33.7003 14.0309C33.7003 14.3629 33.8248 14.6673 34.0738 14.944C34.3229 15.2207 34.641 15.359 35.0284 15.359H44.7401C45.0721 15.3037 45.3488 15.1376 45.5702 14.861C45.7915 14.5843 45.9022 14.2523 45.9022 13.8649C45.9022 13.5329 45.7915 13.2562 45.5702 13.0348C45.3488 12.8135 45.0721 12.7028 44.7401 12.7028ZM79.6856 12.8688C79.3536 12.8688 79.0354 12.9795 78.731 13.2008C78.4267 13.4222 78.2745 13.7542 78.2745 14.1969C78.2745 14.5289 78.399 14.8333 78.648 15.11C78.897 15.3867 79.2429 15.525 79.6856 15.525C80.239 15.525 80.7647 15.7464 81.2627 16.1891C81.7608 16.6318 82.0098 17.1851 82.0098 17.8492V53.7908H72.7961V15.359H74.9543C75.2863 15.359 75.5906 15.2345 75.8673 14.9855C76.144 14.7365 76.2824 14.4183 76.2824 14.0309C76.2824 13.6989 76.1717 13.3945 75.9503 13.1178C75.729 12.8412 75.397 12.7028 74.9543 12.7028H72.7961V4.31921C72.7961 3.2678 72.4088 2.36857 71.634 1.62151C70.8593 0.874458 69.9739 0.500931 68.9778 0.500931H16.02C15.024 0.500931 14.1386 0.874458 13.3639 1.62151C12.5891 2.36857 12.2018 3.2678 12.2018 4.31921V13.0348H5.47829C4.26087 12.9242 3.18179 13.3392 2.24106 14.2799C1.30032 15.2207 0.829956 16.3551 0.829956 17.6832V66.6567C0.829956 67.9848 1.30032 69.1192 2.24106 70.0599C3.18179 71.0007 4.31621 71.471 5.6443 71.471H13.5299C13.8619 71.471 14.1662 71.3465 14.4429 71.0975C14.7196 70.8485 14.858 70.5303 14.858 70.1429C14.858 69.7002 14.7335 69.3682 14.4844 69.1469C14.2354 68.9255 13.9172 68.8148 13.5299 68.8148H5.6443C5.09093 68.8148 4.56522 68.5935 4.06719 68.1508C3.56915 67.7081 3.32013 67.1547 3.32013 66.4907V56.1149H82.0098V66.4907C82.0098 67.044 81.7884 67.5697 81.3457 68.0678C80.903 68.5658 80.3497 68.8148 79.6856 68.8148H19.3403C19.0083 68.8148 18.7039 68.9255 18.4272 69.1469C18.1505 69.3682 18.0122 69.7002 18.0122 70.1429C18.0122 70.4749 18.1367 70.7793 18.3857 71.056C18.6347 71.3327 18.9529 71.471 19.3403 71.471H32.3722V78.1115C30.7121 78.1115 29.2733 78.734 28.0559 79.9791C26.8385 81.2242 26.2298 82.6768 26.2298 84.3369C26.2298 84.669 26.3405 84.9733 26.5618 85.25C26.7831 85.5267 27.1152 85.665 27.5579 85.665H58.1041C58.4361 85.665 58.7404 85.5405 59.0171 85.2915C59.2938 85.0425 59.4322 84.7243 59.4322 84.3369C59.4322 82.6768 58.8234 81.2242 57.606 79.9791C56.3886 78.734 54.9498 78.1115 53.2897 78.1115V71.471H80.0176C81.3457 71.471 82.4801 71.0007 83.4209 70.0599C84.3616 69.1192 84.832 67.9848 84.832 66.6567V17.6832C84.666 16.3551 84.0988 15.2207 83.1304 14.2799C82.1619 13.3392 81.0137 12.8688 79.6856 12.8688ZM12.2018 53.6247H3.32013V17.6832C3.32013 17.1298 3.54148 16.6041 3.98418 16.1061C4.42688 15.608 4.98025 15.359 5.6443 15.359H12.3678V53.6247H12.2018ZM70.3059 19.0113H27.2258C26.8938 19.0113 26.5895 19.1358 26.3128 19.3848C26.0361 19.6338 25.8978 19.952 25.8978 20.3394C25.8978 20.7821 26.0084 21.1141 26.2298 21.3354C26.4511 21.5568 26.7831 21.6674 27.2258 21.6674H70.3059V53.7908H14.858V21.5014H20.6684C21.0004 21.5014 21.3048 21.3908 21.5814 21.1694C21.8581 20.9481 21.9965 20.616 21.9965 20.1733C21.9965 19.786 21.8858 19.4678 21.6644 19.2188C21.4431 18.9698 21.1111 18.8453 20.6684 18.8453H14.858V4.31921C14.858 3.98718 14.9825 3.68283 15.2315 3.40614C15.4805 3.12946 15.7987 2.99111 16.1861 2.99111H69.1439C69.4759 2.99111 69.7802 3.11562 70.0569 3.36464C70.3336 3.61366 70.4719 3.93185 70.4719 4.31921L70.3059 19.0113ZM34.8624 71.305H50.6335V77.9455H34.8624V71.305ZM56.4439 83.0088H28.886C29.1627 82.2341 29.6054 81.6254 30.2141 81.1827C30.8228 80.74 31.5422 80.5187 32.3722 80.5187H52.9577C53.7878 80.5187 54.5071 80.74 55.1158 81.1827C55.7246 81.6254 56.1673 82.2341 56.4439 83.0088ZM43.412 58.6051C42.3053 58.6051 41.3922 58.9786 40.6728 59.7257C39.9534 60.4727 39.5937 61.372 39.5937 62.4234C39.5937 63.5301 39.9534 64.457 40.6728 65.2041C41.3922 65.9511 42.3053 66.3247 43.412 66.3247C44.5188 66.3247 45.4318 65.9511 46.1512 65.2041C46.8706 64.457 47.2303 63.5301 47.2303 62.4234C47.1749 61.372 46.7738 60.4727 46.0267 59.7257C45.2796 58.9786 44.4081 58.6051 43.412 58.6051ZM43.412 63.7515C43.08 63.7515 42.7756 63.6408 42.4989 63.4194C42.2223 63.1981 42.0839 62.8661 42.0839 62.4234C42.0839 62.0913 42.1946 61.787 42.4159 61.5103C42.6373 61.2336 42.9693 61.0953 43.412 61.0953C43.744 61.0953 44.0484 61.2198 44.3251 61.4688C44.6018 61.7178 44.7401 62.036 44.7401 62.4234C44.6848 62.7554 44.5326 63.0598 44.2836 63.3364C44.0346 63.6131 43.744 63.7515 43.412 63.7515ZM28.5539 13.5329L24.4036 6.31135C24.293 6.14534 24.127 5.99316 23.9056 5.85482C23.6843 5.71648 23.4629 5.6473 23.2416 5.6473C22.9649 5.6473 22.7712 5.71648 22.6605 5.85482C22.5498 5.99316 22.4115 6.14534 22.2455 6.31135L18.0122 13.5329C17.9569 13.6989 17.9292 13.8926 17.9292 14.1139C17.9292 14.3353 17.9569 14.5843 18.0122 14.861C18.1782 15.027 18.358 15.1792 18.5517 15.3175C18.7454 15.4558 18.9529 15.525 19.1743 15.525H27.5579C27.7792 15.525 27.9867 15.4835 28.1804 15.4005C28.3741 15.3175 28.5539 15.1376 28.72 14.861C28.7753 14.695 28.803 14.4874 28.803 14.2384C28.803 13.9894 28.72 13.7542 28.5539 13.5329ZM21.3324 12.8688L23.4076 9.54858L25.3997 12.8688H21.3324ZM66.4877 26.2328H48.0603C47.7283 26.2328 47.424 26.3435 47.1473 26.5648C46.8706 26.7862 46.7322 27.1182 46.7322 27.5609C46.7322 27.8929 46.8568 28.1973 47.1058 28.4739C47.3548 28.7506 47.673 28.889 48.0603 28.889H66.4877C66.8197 28.889 67.124 28.7645 67.4007 28.5154C67.6774 28.2664 67.8158 27.9482 67.8158 27.5609C67.8158 27.1182 67.6774 26.7862 67.4007 26.5648C67.124 26.3435 66.8197 26.2328 66.4877 26.2328ZM66.4877 31.7112H48.0603C47.7283 31.7112 47.424 31.8357 47.1473 32.0847C46.8706 32.3337 46.7322 32.6519 46.7322 33.0393C46.7322 33.482 46.8568 33.814 47.1058 34.0353C47.3548 34.2567 47.673 34.3674 48.0603 34.3674H66.4877C66.8197 34.3674 67.124 34.2567 67.4007 34.0353C67.6774 33.814 67.8158 33.482 67.8158 33.0393C67.8158 32.6519 67.6774 32.3337 67.4007 32.0847C67.124 31.8357 66.8197 31.7112 66.4877 31.7112ZM66.4877 37.2726H48.0603C47.7283 37.2726 47.424 37.3832 47.1473 37.6046C46.8706 37.8259 46.7322 38.158 46.7322 38.6007C46.7322 38.9327 46.8568 39.237 47.1058 39.5137C47.3548 39.7904 47.673 39.9288 48.0603 39.9288H66.4877C66.8197 39.9288 67.124 39.8043 67.4007 39.5552C67.6774 39.3062 67.8158 38.988 67.8158 38.6007C67.8158 38.2686 67.6774 37.9643 67.4007 37.6876C67.124 37.4109 66.8197 37.2726 66.4877 37.2726ZM66.4877 42.751H48.0603C47.7283 42.751 47.424 42.8755 47.1473 43.1245C46.8706 43.3735 46.7322 43.6917 46.7322 44.0791C46.7322 44.4111 46.8568 44.7154 47.1058 44.9921C47.3548 45.2688 47.673 45.4072 48.0603 45.4072H66.4877C66.8197 45.4072 67.124 45.2965 67.4007 45.0751C67.6774 44.8538 67.8158 44.5218 67.8158 44.0791C67.8158 43.747 67.6774 43.4427 67.4007 43.166C67.124 42.8893 66.8197 42.751 66.4877 42.751ZM56.776 48.3954H48.2264C47.8943 48.3954 47.59 48.5199 47.3133 48.7689C47.0366 49.0179 46.8983 49.3361 46.8983 49.7235C46.8983 50.1662 47.0228 50.512 47.2718 50.761C47.5208 51.0101 47.839 51.1346 48.2264 51.1346H56.776C57.108 51.1346 57.4123 51.0101 57.689 50.761C57.9657 50.512 58.1041 50.1662 58.1041 49.7235C58.0487 49.3361 57.8965 49.0179 57.6475 48.7689C57.3985 48.5199 57.108 48.3954 56.776 48.3954ZM42.4159 25.0707H19.1743C18.8422 25.0707 18.5379 25.1814 18.2612 25.4027C17.9845 25.6241 17.8462 25.9561 17.8462 26.3988V49.5574C17.8462 49.9448 17.9707 50.2768 18.2197 50.5535C18.4687 50.8302 18.7869 50.9686 19.1743 50.9686H42.5819C42.914 50.9686 43.2183 50.844 43.495 50.595C43.7717 50.346 43.91 50.0001 43.91 49.5574V26.2328C43.8547 25.9561 43.6887 25.6932 43.412 25.4442C43.1353 25.1952 42.8033 25.0707 42.4159 25.0707ZM20.5024 27.5609H41.2539V40.7588C41.1432 40.7588 41.0463 40.7588 40.9633 40.7588C40.8803 40.7588 40.8112 40.7588 40.7558 40.7588C39.6491 40.6481 38.7498 40.7588 38.0581 41.0908C37.3664 41.4229 36.7439 41.7549 36.1905 42.0869C35.8031 42.3083 35.4158 42.5296 35.0284 42.751C34.641 42.9723 34.1983 43.083 33.7003 43.083C32.8149 43.1937 32.0402 43.0276 31.3761 42.5849C30.7121 42.1423 30.048 41.6442 29.384 41.0908C28.5539 40.4268 27.6409 39.7904 26.6448 39.1817C25.6487 38.573 24.459 38.324 23.0756 38.4347C22.6329 38.4347 22.204 38.4762 21.789 38.5592C21.3739 38.6422 20.9451 38.822 20.5024 39.0987V27.5609ZM41.2539 48.3954H20.5024V41.9209C20.9451 41.6442 21.4016 41.4367 21.872 41.2984C22.3423 41.16 22.7989 41.0908 23.2416 41.0908C24.2376 40.9802 25.0677 41.1462 25.7317 41.5889C26.3958 42.0316 27.1152 42.5849 27.8899 43.249C28.72 43.913 29.6054 44.5356 30.5461 45.1166C31.4868 45.6977 32.6489 45.9052 34.0323 45.7392C34.9731 45.6838 35.734 45.504 36.315 45.1996C36.896 44.8953 37.4356 44.5771 37.9336 44.2451C38.321 43.913 38.7222 43.6779 39.1372 43.5395C39.5522 43.4012 40.0918 43.3597 40.7558 43.415C40.8112 43.415 40.908 43.4288 41.0463 43.4565C41.1847 43.4842 41.3092 43.5257 41.4199 43.581L41.2539 48.3954ZM34.1983 30.3831C33.1469 30.3831 32.2477 30.7566 31.5007 31.5037C30.7536 32.2507 30.3801 33.1499 30.3801 34.2014C30.3801 35.3081 30.7536 36.235 31.5007 36.982C32.2477 37.7291 33.1469 38.1026 34.1983 38.1026C35.3051 38.1026 36.232 37.7291 36.979 36.982C37.7261 36.235 38.0996 35.3081 38.0996 34.2014C38.0996 33.2053 37.6984 32.3199 36.896 31.5452C36.0937 30.7704 35.1944 30.3831 34.1983 30.3831ZM34.1983 35.6955C33.8663 35.6955 33.562 35.5571 33.2853 35.2804C33.0086 35.0037 32.8703 34.6994 32.8703 34.3674C32.8703 34.0353 33.0086 33.731 33.2853 33.4543C33.562 33.1776 33.8663 33.0393 34.1983 33.0393C34.5304 33.0393 34.8347 33.1776 35.1114 33.4543C35.3881 33.731 35.5264 34.0353 35.5264 34.3674C35.5264 34.6994 35.3881 35.0037 35.1114 35.2804C34.8347 35.5571 34.5304 35.6955 34.1983 35.6955Z" fill="#3858E9"/>
</g>
<defs>
<clipPath id="clip0_20_239">
<rect width="83.67" height="85" fill="white" transform="matrix(1 0 0 -1 0.829956 85.5)"/>
</clipPath>
</defs>
</svg>
